<svg width="88" height="88" viewBox="0 0 88 88" fill="none" xmlns="http://www.w3.org/2000/svg">
<path fill-rule="evenodd" clip-rule="evenodd" d="M14.6668 0.308013C6.31817 1.87117 0 9.19774 0 18V70C0 79.9411 8.05887 88 18 88H70C79.9411 88 88 79.9411 88 70V18C88 8.05888 79.9411 0 70 0H31.5335V14.6666H65.3335C69.7517 14.6666 73.3335 18.2483 73.3335 22.6666V65.3333C73.3335 69.7515 69.7517 73.3333 65.3335 73.3333H22.6668C18.2485 73.3333 14.6668 69.7515 14.6668 65.3333V46.9333V22.6666V0.308013ZM37 33C34.7909 33 33 34.7909 33 37V51C33 53.2091 34.7909 55 37 55H51C53.2091 55 55 53.2091 55 51V37C55 34.7909 53.2091 33 51 33H37Z" fill="#F39D0C"/>
</svg>
