<svg width="100" height="100" viewBox="0 0 100 100" fill="none" xmlns="http://www.w3.org/2000/svg">
<path d="M85.3553 14.6447C75.9116 5.20094 63.3555 0 50 0C36.6445 0 24.0884 5.20094 14.6447 14.6447C5.20094 24.0884 0 36.6445 0 50C0 63.3555 5.20094 75.9116 14.6447 85.3553C24.0884 94.7991 36.6445 100 50 100C63.3555 100 75.9116 94.7991 85.3553 85.3553C94.7991 75.9116 100 63.3555 100 50C100 36.6445 94.7991 24.0884 85.3553 14.6447ZM91.9842 33.8064C91.0087 32.0498 88.5614 31.2173 85.358 30.1286C81.9222 28.9609 80.7088 25.4292 79.3039 21.3398C78.0842 17.79 76.8236 14.1256 73.8284 11.8439C82.0216 16.9791 88.4508 24.6766 91.9842 33.8064ZM77.9527 50.9528C78.3308 54.3398 78.7217 57.842 74.5188 62.5616C73.3831 63.8366 72.718 65.6122 72.0136 67.4922C70.3827 71.8459 68.8411 75.9598 62.283 76.02C62.0992 75.7991 61.5758 74.9717 61.113 72.3547C60.6866 69.9428 60.4405 66.8267 60.1798 63.5277C59.7802 58.4658 59.3272 52.7286 58.0759 47.9691C56.4761 41.8827 53.792 38.2873 49.8703 36.9775C48.1592 36.4059 46.4122 36.1281 44.5292 36.1281C43.1414 36.1281 41.8803 36.2767 40.7678 36.4078C39.9011 36.5098 39.0825 36.6064 38.3908 36.6064C38.3908 36.6064 38.3906 36.6064 38.3905 36.6064C37.2198 36.6064 35.8931 36.6064 34.2617 32.8672C31.9159 27.4909 33.6461 18.8763 40.5314 14.3333C44.3069 11.8422 46.9119 10.7794 49.2423 10.7794C51.1003 10.7794 53.1077 11.4261 55.9542 12.942C59.3153 14.732 61.9483 14.9616 63.8669 14.9616C64.6275 14.9616 65.317 14.9206 65.9842 14.8809C66.5434 14.8478 67.0716 14.8164 67.5603 14.8164C68.6598 14.8164 69.5513 14.9597 70.5963 15.6734C72.5223 16.9891 73.5197 19.8917 74.5755 22.9648C76.1762 27.6245 77.9908 32.9061 83.7494 34.863C84.5233 35.1259 85.8564 35.5791 86.7978 35.973C85.9845 36.8136 84.6216 38.0303 83.29 39.2191C82.4298 39.9869 81.4552 40.857 80.3748 41.8419C77.2533 44.6869 77.6248 48.0158 77.9527 50.9528ZM5.00484 49.6162C5.54391 49.7131 6.12719 49.8253 6.72406 49.9528C9.53422 50.5525 10.8486 51.0941 11.423 51.398C11.1588 51.9133 10.6234 52.673 10.2697 53.1748C9.0325 54.9303 7.49281 57.1152 8.07859 59.5209C8.47375 61.1437 8.14031 63.1373 7.56609 64.9783C5.90656 60.2903 5 55.2494 5 50C5 49.8717 5.00375 49.7444 5.00484 49.6162ZM50 95C32.8731 95 17.9519 85.3814 10.3502 71.2634C11.6609 68.768 14.0917 63.2503 12.9556 58.417C13.0344 57.9317 13.8588 56.7617 14.3569 56.0552C15.7117 54.1325 17.398 51.7398 16.1489 49.2044C15.2723 47.4248 12.9305 46.2225 8.31875 45.1839C7.25047 44.9433 6.21 44.7473 5.32562 44.5961C8.00375 22.3217 27.0158 5 50 5C57.8883 5 65.3075 7.04281 71.7608 10.6233C70.1661 9.92656 68.7184 9.81609 67.5602 9.81609C66.9231 9.81609 66.2948 9.85344 65.6875 9.88953C65.0933 9.92484 64.4791 9.96125 63.8667 9.96125C62.4466 9.96125 60.6752 9.79109 58.3044 8.52859C54.6856 6.60141 51.9755 5.77906 49.2423 5.77906C45.86 5.77906 42.4314 7.08906 37.7778 10.1595C33.7547 12.8139 30.7242 16.8763 29.2445 21.5983C27.8012 26.2044 27.9555 30.9164 29.6789 34.8666C31.7125 39.5275 34.3992 41.6061 38.3902 41.6063C38.3905 41.6063 38.3905 41.6063 38.3908 41.6063C39.3761 41.6063 40.3364 41.4931 41.353 41.3733C42.3766 41.2527 43.435 41.128 44.5292 41.128C45.8836 41.128 47.0775 41.3161 48.2863 41.7198C50.4823 42.4534 52.1028 44.9133 53.2402 49.2402C54.3777 53.5673 54.8122 59.0681 55.1953 63.9212C55.515 67.9695 55.817 71.7933 56.482 74.6758C56.8859 76.4261 57.4092 77.7556 58.0816 78.7403C59.0858 80.2108 60.5261 81.0206 62.1369 81.0206C66.5577 81.0206 70.0889 79.5955 72.632 76.7848C74.7472 74.4475 75.8275 71.5636 76.6958 69.2464C77.208 67.8789 77.7378 66.465 78.2525 65.8869C83.938 59.5028 83.3505 54.2406 82.9217 50.3983C82.6067 47.5772 82.6009 46.5777 83.7428 45.5369C84.8037 44.5697 85.7683 43.7086 86.6192 42.9491C88.4325 41.3303 89.7427 40.1606 90.6619 39.157C91.2931 38.4678 92.7716 36.8539 92.3606 34.8328C92.357 34.8148 92.352 34.7978 92.3483 34.7802C94.063 39.5361 95 44.6605 95 50C95 74.8131 74.8131 95 50 95Z" fill="#00A9FF"/>
</svg>
