<svg width="114" height="125" viewBox="0 0 114 125" fill="none" xmlns="http://www.w3.org/2000/svg">
<path d="M103.7 52.1L97.8 53.7L96.2 47.8C95.8 46.4 96.7 45 98 44.6L103.9 43L105.5 48.9C105.9 50.3 105.1 51.7 103.7 52.1Z" fill="#00A9FA"/>
<path d="M109.9 41.3001L104 42.9001L101.7 34.4001L110.2 32.1001L111.8 38.0001C112.1 39.5001 111.3 40.9001 109.9 41.3001Z" fill="#F39D0C"/>
<path d="M101.7 34.4L93.2 36.7L91.6 30.8C91.2 29.4 92.1 28 93.4 27.6L99.3 26L101.7 34.4Z" fill="#00A9FA"/>
<path d="M98.7 56L109.3 95.4C110.1 98.2 108.4 101.2 105.5 101.9L22.8 124.1H108.5C111.4 124.1 113.8 121.7 113.8 118.8V61.3C113.8 58.4 111.4 56 108.5 56H98.7Z" fill="#F39D0C"/>
<path d="M93.4 52.8001L87.7 31.6001L4.9 53.8001C2.1 54.6001 0.399998 57.5001 1.1 60.3001L17.3 120.9L102.6 98.0001C104 97.6001 104.9 96.2001 104.5 94.7001L93.4 52.8001Z" fill="#00A9FA"/>
<path d="M87.7 31.6001L50.1 112.2L91.8 101L87.7 31.6001Z" fill="#00BBF9"/>
<path d="M40.4 44.3001L66.8 76.3001L87.7 31.6001L40.4 44.3001Z" fill="#00A3E0"/>
<path d="M50.1 55.8001L10.7 95.9001L19.3 49.9001L40.4 44.3L50.1 55.8001Z" fill="#00BBF9"/>
<path d="M10.7 95.9H57.7L66.8 76.3L50.1 55.8L10.7 95.9Z" fill="#00A9FA"/>
<path d="M10.7 95.8999L51.4 102.6L50.1 112.2L17.4 120.9L10.7 95.8999Z" fill="#00BBF9"/>
<path d="M10.7 95.8999L50.1 112.2L51.4 102.6L10.7 95.8999Z" fill="#00A3E0"/>
<path d="M91.8 101L61.1 88.6001L50.1 112.2L91.8 101Z" fill="#00A9FA"/>
<path d="M61.1 88.6001L51.4 102.6L10.7 95.9001L61.1 88.6001Z" fill="#00BBF9"/>
<path d="M61.1 88.6001L68.2 107.3L91.8 101L61.1 88.6001Z" fill="#00BBF9"/>
<path d="M17.4 120.9L28.3 103.2L50.1 112.2L17.4 120.9Z" fill="#00A9FA"/>
<path d="M85.6 68.6001L89.6 64.6001L87.7 31.6001L74.6 59.4001L85.6 68.6001Z" fill="#00BBF9"/>
<path d="M91.8 101L90 68.5001L70.9 67.6001L64.3 89.9001L91.8 101Z" fill="#00A3E0"/>
<path d="M42.3 73.5C39.6 70.8 39.6 66.4 42.3 63.7L51.4 54.6L69.5 36.5L51.4 0L40.3 22.4V43.3L33.4 36.4L17.4 68.6L39.5 90.7L49.5 80.7L42.3 73.5Z" fill="#F39D0C"/>
<path d="M85.6 68.6001L70.9 39.1001L53.4 56.6001L60.6 63.8001C63.3 66.5001 63.3 70.9001 60.6 73.5001L41.4 92.7001L51.4 102.7L85.6 68.6001Z" fill="white"/>
</svg>
