<svg width="50" height="50" viewBox="0 0 50 50" fill="none" xmlns="http://www.w3.org/2000/svg">
<circle cx="25" cy="25" r="25" fill="#38D2DE"/>
<path fill-rule="evenodd" clip-rule="evenodd" d="M14.7 14C14.2 11.4 16.2 9 18.8 9C21.1 9 23 10.9 23 13.2V18.4C23.6 18.4 24.2 18.3 24.8 18.3C25.4 18.3 25.9 18.3 26.5 18.4V13.2C26.5 10.9 28.4 9 30.7 9C33.3 9 35.3 11.4 34.9 14L33.8 20.1C37.7 21.8 40.7 24.8 40.7 28.5V30.8C40.7 33.9 38.7 36.5 35.8 38.2C32.9 40 29.1 41 24.8 41C20.5 41 16.7 40 13.8 38.2C11 36.5 9 33.9 9 30.8V28.5C9 24.8 11.9 21.8 15.8 20.1L14.7 14ZM32.3 20.9L33.6 13.7C33.9 11.9 32.6 10.2 30.7 10.2C29.1 10.2 27.8 11.5 27.8 13.1V19.7C27.4 19.6 26.9 19.6 26.5 19.6C25.9 19.6 25.4 19.5 24.8 19.5C24.2 19.5 23.6 19.5 23 19.6C22.6 19.6 22.1 19.7 21.7 19.7V13.2C21.7 11.6 20.4 10.3 18.8 10.3C17 10.3 15.6 12 16 13.8L17.3 21C13.1 22.6 10.3 25.4 10.3 28.6V30.9C10.3 35.8 16.8 39.8 24.8 39.8C32.8 39.8 39.3 35.8 39.3 30.9V28.6C39.4 25.3 36.6 22.5 32.3 20.9Z" fill="#633001"/>
<path d="M39.4 30.8C39.4 35.7 32.9 39.7 24.9 39.7C16.9 39.7 10.4 35.7 10.4 30.8V28.5H39.5V30.8H39.4Z" fill="#FEDC90"/>
<path fill-rule="evenodd" clip-rule="evenodd" d="M16 13.8C15.6 12 17 10.3 18.8 10.3C20.4 10.3 21.7 11.6 21.7 13.2V19.8C22.7 19.7 23.7 19.6 24.8 19.6C25.8 19.6 26.8 19.7 27.8 19.8V13.2C27.8 11.6 29.1 10.3 30.7 10.3C32.5 10.3 33.9 12 33.6 13.8L32.3 21C36.5 22.6 39.4 25.4 39.4 28.6C39.4 33.5001 32.9 37.5 24.9 37.5C16.9 37.5 10.4 33.5001 10.4 28.6C10.4 25.4 13.2 22.6 17.4 21L16 13.8Z" fill="#D1884F"/>
<path d="M20.8 27.9C20.8 29.2 20.1 30.3 19.2 30.3C18.3 30.3 17.6 29.2 17.6 27.9C17.6 26.6 18.3 25.5 19.2 25.5C20.1 25.5 20.8 26.6 20.8 27.9Z" fill="#633001"/>
<path d="M31.9 27.9C31.9 29.2 31.2 30.3 30.3 30.3C29.4 30.3 28.7 29.2 28.7 27.9C28.7 26.6 29.4 25.5 30.3 25.5C31.2 25.5 31.9 26.6 31.9 27.9Z" fill="#633001"/>
</svg>
