<svg width="254" height="383" viewBox="0 0 254 383" fill="none" xmlns="http://www.w3.org/2000/svg">
<path d="M61.403 138.835L3 254.309L84.0751 336.217L120.812 299.495C120.812 299.495 74.8917 263.49 93.1153 240.538C111.338 217.587 194.852 138.835 194.852 138.835L127.699 5L87.6617 87.0511V164.369L61.403 138.835Z" stroke="url(#paint0_linear_2411_7720)" stroke-width="4"/>
<path d="M126.261 380.112L89.9575 343.82V343.103L158.982 274.105C158.982 274.105 168.308 263.203 168.308 255.744C168.308 248.285 158.982 237.383 158.982 237.383L133.582 211.706L197.439 147.873L250.674 255.744L126.261 380.112Z" stroke="url(#paint1_linear_2411_7720)" stroke-width="4"/>
<defs>
<linearGradient id="paint0_linear_2411_7720" x1="251.408" y1="125.661" x2="-96.4918" y2="210.678" gradientUnits="userSpaceOnUse">
<stop stop-color="#F0C90A"/>
<stop offset="0.848958" stop-color="#00A3E0"/>
</linearGradient>
<linearGradient id="paint1_linear_2411_7720" x1="298.047" y1="232.477" x2="13.468" y2="315.561" gradientUnits="userSpaceOnUse">
<stop stop-color="#F0C90A"/>
<stop offset="0.848958" stop-color="#00A3E0"/>
</linearGradient>
</defs>
</svg>
