<svg width="100" height="91" viewBox="0 0 100 91" fill="none" xmlns="http://www.w3.org/2000/svg">
<defs>
<linearGradient id="paint0_linear_914_348" x1="35.5056" y1="-2.23965" x2="50.7612" y2="50.1463" gradientUnits="userSpaceOnUse">
<stop stop-color="#03B8FF"/>
<stop offset="1" stop-color="#FA52A0"/>
</linearGradient>
<linearGradient id="paint1_linear_914_348" x1="48.0687" y1="-5.89907" x2="63.3248" y2="46.4873" gradientUnits="userSpaceOnUse">
<stop stop-color="#03B8FF"/>
<stop offset="1" stop-color="#FA52A0"/>
</linearGradient>
<linearGradient id="paint2_linear_914_348" x1="22.9813" y1="1.40726" x2="38.2373" y2="53.7936" gradientUnits="userSpaceOnUse">
<stop stop-color="#03B8FF"/>
<stop offset="1" stop-color="#FA52A0"/>
</linearGradient>
</defs>
<path d="M20.4336 5.22852L97.361 57.7542L78.336 85.8782L1.40854 32.9389L20.4336 5.22852Z" fill="url(#paint0_linear_914_348)"/>
<path d="M97.361 57.7538C90.7436 67.2664 68.4098 63.5441 47.3168 48.6549C25.8102 34.1793 14.2298 14.7406 20.4336 5.22811C27.051 -4.28442 49.3848 -0.562122 70.4778 14.3271C91.9844 28.3891 103.565 48.2413 97.361 57.7538Z" fill="url(#paint1_linear_914_348)"/>
<path d="M78.3359 85.4645C71.7185 94.9771 49.3848 91.2548 28.2918 76.3656C7.19875 61.4764 -4.79531 42.4514 1.8221 32.5252C8.43952 23.0127 30.7733 26.735 51.8663 41.6242C72.9593 56.5134 84.5398 75.952 78.3359 85.4645Z" fill="url(#paint2_linear_914_348)"/>
<path d="M97.361 57.7538L78.3359 85.8778C71.7185 95.3903 49.3848 91.2545 28.2917 76.7789C24.1559 73.8837 20.4336 70.9886 16.7113 67.6799C19.6064 67.2663 23.3287 65.612 27.051 61.4761C33.6684 54.4451 36.9771 52.7907 39.8722 53.2043C42.7673 53.2043 46.076 56.0994 51.4527 63.1304C56.8293 70.1614 64.2739 72.2294 68.8234 68.5071C69.237 68.0935 69.6506 68.0935 70.0642 67.6799C73.7865 64.7848 75.0272 63.544 82.0582 50.3092C83.7126 47.0005 89.5028 41.6238 97.361 44.1054C99.4289 49.482 99.4289 54.0315 97.361 57.7538Z" fill="#0E0F23"/>
<path fill-rule="evenodd" clip-rule="evenodd" d="M94.4659 56.0997C88.6757 64.3715 68.4098 60.2356 48.9712 46.5872C29.1189 32.9388 17.5385 15.5681 23.3287 7.29629C29.1189 -0.97548 49.3848 3.1604 68.8234 16.8088C88.2621 30.4572 99.8426 47.8279 94.4659 56.0997ZM76.268 43.6921C73.3729 47.8279 63.4468 45.76 53.5207 39.1426C44.0081 32.5252 38.2179 23.8398 41.113 19.7039C44.0081 15.5681 53.9342 17.636 63.8604 24.2534C73.3729 30.8708 79.1631 39.5562 76.268 43.6921Z" fill="white"/>
<path d="M18.7792 14.7402C18.7792 14.3266 18.3656 13.913 17.9521 14.3266C17.5385 14.7402 17.1249 14.7402 17.1249 15.1538C17.5385 16.3945 17.9521 17.2217 17.9521 18.0489C17.9521 18.4625 18.3656 18.8761 18.7792 18.4625C19.1928 18.4625 19.6064 18.0489 19.1928 17.6353C19.1928 16.8081 19.1928 15.9809 18.7792 14.7402Z" fill="white"/>
<path d="M20.8472 21.3583C20.8472 20.9448 20.4336 20.5312 20.02 20.9448C19.6064 21.3583 19.6064 21.3583 19.6064 21.7719C24.1559 32.1116 33.6684 43.2785 46.0761 51.5503C46.4897 51.9639 46.9032 51.5503 47.3168 51.5503C47.7304 51.1367 47.3168 50.7231 47.3168 50.3095C34.4956 42.0378 25.3967 31.2845 20.8472 21.3583Z" fill="white"/>
<path d="M70.8914 61.8899C70.4778 61.8899 70.0642 61.8899 70.0642 62.3035C70.0642 62.7171 70.0642 63.1307 70.4778 63.1307C71.7186 63.5442 73.3729 63.9578 74.6137 64.3714C75.0273 64.3714 75.4409 64.3714 75.4409 63.9578C75.4409 63.5442 75.4409 63.1307 75.0273 63.1307C73.7865 62.7171 72.1322 62.3035 70.8914 61.8899Z" fill="white"/>
<path d="M78.3359 63.5439C77.9224 63.5439 77.5088 63.9575 77.5088 64.3711C77.5088 64.7847 77.9224 65.1983 78.3359 65.1983C81.6446 65.6119 85.3669 66.0255 88.2621 65.6119C88.6756 65.6119 89.0892 65.1983 89.0892 64.7847C89.0892 64.3711 88.6756 63.9575 88.2621 63.9575C84.9534 64.3711 81.6446 63.9575 78.3359 63.5439Z" fill="white"/>
</svg>
