<svg width="431" height="203" viewBox="0 0 431 203" fill="none" xmlns="http://www.w3.org/2000/svg">
<path d="M426.724 93.7455C418.504 70.8355 393.724 55.0755 369.724 55.4355C368.584 55.4355 367.464 55.5255 366.364 55.6255C366.454 22.1555 334.744 -1.03445 302.554 0.0355461C285.554 0.595546 270.114 10.9055 261.334 25.0355C246.764 3.24554 211.614 3.4855 191.734 19.7355C170.334 37.2255 164.944 76.9355 185.734 95.4455C185.386 95.8016 185.112 96.2241 184.93 96.688C184.748 97.1518 184.661 97.6474 184.674 98.1455C184.424 114.586 177.674 125.525 160.614 126.675C144.964 127.675 128.614 121.886 114.014 116.956C100.134 112.276 86.5942 106.756 72.0742 104.406C46.7442 100.306 22.3542 110.186 2.96418 125.956C2.64348 126.215 2.36076 126.518 2.12422 126.855C-2.58578 128.995 1.28418 136.416 6.46418 134.616C32.7742 125.516 58.7042 131.866 82.2542 145.216C102.254 156.526 117.184 173.556 135.144 187.466C152.774 201.116 170.704 204.306 192.514 200.896C210.224 198.136 230.924 187.406 240.004 170.896C249.264 181.086 261.474 190.396 275.224 190.776C293.154 191.266 304.554 179.416 310.694 164.536C316.994 172.316 327.154 176.426 337.264 178.746C352.414 182.216 370.354 183.436 385.264 178.556C418.954 167.446 438.514 126.726 426.724 93.7455ZM417.854 134.236C410.284 155.166 390.764 171.806 368.174 172.506C352.354 172.996 333.484 171.766 320.404 161.946C317.276 159.518 315.077 156.09 314.174 152.236C313.174 148.336 306.784 146.966 305.634 151.586C301.454 168.276 290.694 185.656 270.634 181.346C259.334 178.916 249.154 168.346 242.174 159.616C241.66 159.04 241.005 158.607 240.274 158.36C239.543 158.112 238.76 158.059 238.001 158.204C237.243 158.349 236.536 158.687 235.947 159.187C235.359 159.687 234.91 160.331 234.644 161.056C226.644 186.056 193.554 194.216 170.574 193.536C149.574 192.906 131.984 173.536 117.574 160.436C91.7342 136.926 59.2942 119.276 24.9642 121.936C42.5742 112.696 62.1242 109.936 82.6442 115.616C97.7242 119.816 112.194 126.046 127.274 130.316C141.864 134.436 157.694 137.776 172.614 133.486C187.534 129.196 192.894 114.636 193.434 100.636C195.801 101.83 198.28 102.788 200.834 103.496C214.144 107.186 229.214 103.976 238.074 92.8955C246.154 82.7855 245.334 63.4755 235.704 54.4955C220.054 39.8855 189.864 63.4955 206.524 79.9655L207.524 80.8055C211.974 84.3955 217.644 77.5655 213.184 73.9655C204.184 66.6855 226.584 47.9055 233.304 67.8955C241.754 93.0355 210.154 103.406 193.304 89.6155C171.974 72.1255 180.064 34.7955 202.994 22.7655C220.924 13.3655 247.874 14.0755 256.454 34.8555C252.234 46.5455 252.454 59.6355 259.374 71.5255C273.154 95.2355 313.214 97.2655 325.804 70.9255C331.854 58.2755 324.894 42.9255 313.084 36.9255C300.834 30.6755 286.554 37.8755 282.704 50.4455C282.028 52.8652 281.671 55.3632 281.644 57.8755C281.434 63.5455 290.214 64.8155 290.444 59.0955C290.894 47.3155 300.444 39.2855 311.594 46.1855C321.654 52.4055 320.594 66.9855 312.594 74.1355C294.784 90.0055 267.384 78.8456 263.384 56.4156C262.195 50.0448 262.659 43.4753 264.734 37.3355C265.266 36.675 265.574 35.8626 265.614 35.0155C272.614 18.1955 291.614 7.56549 310.824 9.10549C335.564 11.1055 358.824 31.5755 357.384 57.4255C338.234 63.4255 328.214 82.7355 329.024 103.936C329.634 119.936 342.144 134.286 356.674 139.836C371.994 145.696 388.214 135.996 393.124 121.036C396.954 109.336 389.314 96.1655 378.424 91.5055C367.534 86.8455 357.844 92.2655 357.344 104.276C357.104 109.986 365.944 110.705 366.184 104.985C366.494 97.7055 371.314 97.3955 376.874 100.696C380.115 102.539 382.616 105.449 383.951 108.931C385.285 112.412 385.371 116.248 384.194 119.786C380.764 130.226 369.454 134.476 359.644 131.476C349.834 128.476 341.974 119.016 338.914 109.476C334.714 96.4755 339.624 79.3055 350.164 70.7055C359.164 63.3655 372.304 63.1755 383.024 65.9755C413.544 73.9255 428.264 105.266 417.804 134.236H417.854Z" fill="white"/>
</svg>
