<svg width="582" height="212" viewBox="0 0 582 212" fill="none" xmlns="http://www.w3.org/2000/svg">
<path d="M564.09 32.758C546.87 16.398 511.93 10.128 497.09 32.638C496.713 33.1607 496.472 33.7692 496.39 34.4084C496.308 35.0475 496.387 35.697 496.62 36.298C496.773 37.5108 497.384 38.619 498.329 39.3946C499.274 40.1702 500.48 40.5543 501.7 40.468C515.02 39.468 528.14 46.278 524.82 61.468C521.57 76.298 505.08 85.068 490.88 83.908C474.69 82.578 460.52 68.458 449.36 57.988C437.29 46.668 425.36 36.098 411.25 27.228C379.143 6.91113 341.316 -2.45011 303.44 0.547985C284.7 2.00798 267.04 7.81798 250.57 16.698C238.44 23.238 225.24 31.448 216.69 42.698C215.269 39.2072 213.389 35.9216 211.1 32.928C195.78 12.978 166.49 10.758 144.17 17.928C128.579 22.9125 115.364 33.4544 107.04 47.548C82.0395 23.998 40.3395 30.908 17.5495 55.368C-0.750454 75.008 -3.08045 106.218 3.01955 131.118C9.27955 156.738 28.1795 178.028 55.5895 179.218C71.2795 179.908 85.0595 173.488 95.6395 162.218C96.0795 161.758 96.5095 161.218 96.9395 160.758C96.8164 167.126 97.948 173.457 100.27 179.388C107.13 196.938 124.64 207.688 143.27 206.978C158.4 206.398 170.44 197.618 177.72 185.428C192.66 223.598 255.6 218.968 267.86 179.358C287.64 202.358 330.58 201.608 355.86 190.358C367.251 185.122 377.484 177.666 385.96 168.428C414.23 191.018 473.44 184.908 481.88 146.428C492.26 151.498 506.67 153.058 516.8 153.278C542.99 153.838 563.66 138.278 574.08 114.758C585.54 88.868 585.78 53.368 564.09 32.758ZM559.56 122.758C548.2 140.018 528.63 145.868 508.95 143.758C500.5 142.858 487.7 140.668 480.71 135.188C477.95 133.018 474.14 135.888 473.99 138.878C472.15 175.878 415.89 180.998 391.68 161.618C405.04 144.608 413.04 123.278 409.6 102.788C405.16 75.998 379.04 56.108 352.65 55.328C322.5 54.438 298.49 85.068 306.43 113.938C310.88 130.128 324.97 143.538 341.93 144.698C356.69 145.698 372.36 133.278 373.57 118.508C374.46 107.618 364.88 96.408 354.95 93.188C342.37 89.108 335.87 99.238 336.75 110.748C337.18 116.438 346.06 116.248 345.62 110.548C345.3 106.358 345.07 100.218 350.82 101.228C356.07 102.148 360.33 106.698 362.89 111.068C366.18 116.688 364.6 122.788 360.55 127.468C357.201 131.339 352.69 134.022 347.69 135.118C342.69 136.214 337.47 135.663 332.81 133.548C314.35 125.238 309.24 101.318 318.3 84.738C325.69 71.248 339.22 63.828 354.43 64.278C385.99 65.208 407.53 97.598 399.75 126.978C394.15 148.118 377.24 167.678 358.87 178.848C341.55 189.388 319.59 190.528 300.07 186.788C286.81 184.248 275.07 177.658 269.22 165.108C267.22 160.768 261.22 163.658 261.02 167.568C259.13 211.658 186.51 216.888 183.53 170.918C183.469 169.863 183.037 168.864 182.308 168.098C181.58 167.332 180.604 166.85 179.553 166.737C178.503 166.625 177.446 166.888 176.572 167.482C175.698 168.075 175.062 168.96 174.78 169.978C171.04 183.548 162.04 193.958 148.04 197.358C135.32 200.468 121.47 194.858 113.48 184.808C105.69 174.998 100.43 156.058 111.8 146.958C113.647 145.443 115.818 144.372 118.145 143.83C120.472 143.287 122.892 143.286 125.22 143.828C132.32 145.558 132.79 154.698 132.15 160.478C131.52 166.098 140.15 168.238 140.77 162.568C142.63 145.998 133.67 130.738 115.21 135.428C112.667 136.045 110.238 137.057 108.01 138.428C109.066 133.032 108.274 127.438 105.76 122.548C96.7595 105.848 68.0495 101.208 60.3495 121.658C58.3495 126.948 66.2895 130.948 68.3495 125.588C75.0595 107.768 101 119.408 99.4195 135.988C98.0995 149.818 85.0395 163.298 72.4195 167.908C47.5995 176.998 24.6895 161.908 15.0995 139.278C5.94953 117.748 6.50954 90.908 17.6995 70.278C33.5695 41.028 81.7695 29.848 104.38 57.418C106.38 59.888 110.53 60.328 112.08 56.978C121.9 35.848 143.08 23.848 165.97 22.978C187.04 22.178 208.25 33.548 211.04 55.888C212.9 70.608 207.54 86.308 196.16 95.888C181.33 108.438 164.58 102.628 155.31 86.938C149.39 76.938 153.92 66.308 163.48 61.008C172.29 56.118 182.67 61.448 176.26 71.958C173.26 76.828 181.26 80.738 184.26 75.888C189.53 67.268 187.47 53.888 176.54 50.888C166.65 48.118 156.04 53.528 149.69 60.948C140.91 71.198 143.12 84.778 150.1 95.258C159.91 109.988 176.4 115.928 192.74 108.498C212.69 99.418 222.95 75.258 219.74 53.848C220.102 53.5341 220.409 53.1624 220.65 52.748C229.78 37.008 248.57 27.048 264.51 19.538C286.2 9.32799 311.06 7.27798 334.67 9.44798C357.19 11.518 379.04 19.268 398.77 30.088C416.77 39.938 431.3 53.188 446.18 67.008C457.49 77.508 470.45 88.838 486.03 92.008C501.61 95.178 516.26 89.078 526.49 77.398C530.175 73.1998 532.639 68.071 533.612 62.5698C534.585 57.0687 534.031 51.406 532.01 46.198C528.17 36.758 518.91 32.848 509.47 31.868C525.93 18.118 555.88 32.758 565.67 48.738C579.1 70.698 572.98 102.398 559.56 122.788V122.758Z" fill="white"/>
</svg>
