<svg width="95" height="95" viewBox="0 0 95 95" fill="none" xmlns="http://www.w3.org/2000/svg">
<defs>
<linearGradient id="paint0_linear_903_276" x1="47.5" y1="-3.53437e-06" x2="95" y2="71.0938" gradientUnits="userSpaceOnUse">
<stop stop-color="#E65484"/>
<stop offset="0.456191" stop-color="#EEB053"/>
<stop offset="1" stop-color="#00A9FF"/>
</linearGradient>
</defs>
<path d="M92.5 20H77.4931C79.0661 17.9094 80 15.3119 80 12.5C80 5.6075 74.3925 0 67.5 0C60.5488 0 54.7198 5.50594 51.8641 8.78781C50.1348 10.7752 48.6459 12.9027 47.5002 14.9605C46.3544 12.9028 44.8653 10.7752 43.1361 8.78781C40.2802 5.50594 34.4514 0 27.5 0C20.6075 0 15 5.6075 15 12.5C15 15.3119 15.9339 17.9094 17.5067 20H2.5C1.11937 20 0 21.1194 0 22.5V37.5C0 38.8806 1.11937 40 2.5 40H5V87.5C5 91.6356 8.36453 95 12.5 95H82.5C86.6356 95 90 91.6356 90 87.5V40H92.5C93.8808 40 95 38.8806 95 37.5V22.5C95 21.1194 93.8808 20 92.5 20ZM55.6359 12.07C59.5456 7.57688 63.87 5 67.5 5C71.6356 5 75 8.36453 75 12.5C75 16.6355 71.6356 20 67.5 20H50.6108C51.4755 17.7909 53.2239 14.842 55.6359 12.07ZM55 90H40V25H55V90ZM20 12.5C20 8.36453 23.3645 5 27.5 5C31.1302 5 35.4544 7.57688 39.3641 12.07C41.7761 14.842 43.5245 17.7909 44.3892 20H27.5C23.3645 20 20 16.6355 20 12.5ZM5 25H35V35H5V25ZM10 87.5V40H35V90H12.5C11.1216 90 10 88.8784 10 87.5ZM85 87.5C85 88.8784 83.8784 90 82.5 90H60V40H85V87.5ZM90 35H60V25H90V35Z" fill="url(#paint0_linear_903_276)"/>
</svg>
