<svg width="94" height="91" viewBox="0 0 94 91" fill="none" xmlns="http://www.w3.org/2000/svg">
<defs>
<linearGradient id="paint0_linear_902_282" x1="47" y1="0.25" x2="47" y2="90.875" gradientUnits="userSpaceOnUse">
<stop stop-color="#EEB053"/>
<stop offset="1" stop-color="#CB334E"/>
</linearGradient>
</defs>
<path d="M84.5 90.875H9.5C4.32188 90.875 0.125 86.675 0.125 81.5V37.75C0.125 32.5719 4.32188 28.375 9.5 28.375H15.75L42.2906 8.00625C42.1719 7.52187 42.0906 7.02187 42.0906 6.5C42.0906 3.05 44.8906 0.25 48.3406 0.25C51.7906 0.25 54.5875 3.05 54.5875 6.5C54.5875 7.62187 54.2688 8.6625 53.7469 9.575L78.25 28.375H84.5C89.675 28.375 93.875 32.5719 93.875 37.75V81.5C93.875 86.675 89.675 90.875 84.5 90.875ZM50.3469 70.8219H62.9437V68.4531H53.0063V50.6781H50.3438V70.8219H50.3469ZM32.3219 70.8219L34.5281 64.7188H42.9906L45.3094 70.8219H48.3469L40.1344 50.6813H37.2469L29.5031 70.8219H32.3219ZM13.6938 53.0437C13.1187 53.9312 12.8313 54.8844 12.8313 55.9C12.8313 56.8281 13.0656 57.6625 13.5375 58.4125C14.0094 59.1625 14.725 59.7844 15.6844 60.2938C16.4219 60.6875 17.7125 61.1062 19.5562 61.55C21.4 61.9937 22.5906 62.3219 23.1313 62.5312C23.9719 62.8563 24.575 63.2469 24.9469 63.7188C25.3188 64.1906 25.5062 64.7375 25.5062 65.3688C25.5062 65.9875 25.3156 66.5656 24.9375 67.0938C24.5594 67.6219 23.9813 68.0375 23.2031 68.3406C22.4281 68.6469 21.5344 68.7969 20.5219 68.7969C19.3813 68.7969 18.3562 68.6 17.4437 68.1969C16.5281 67.8 15.8562 67.275 15.425 66.625C14.9937 65.975 14.7125 65.1438 14.5938 64.1344L12.0781 64.3531C12.1156 65.7 12.4844 66.9031 13.1844 67.9688C13.8844 69.0375 14.8469 69.8375 16.075 70.3688C17.3062 70.9 18.8281 71.1656 20.6469 71.1656C22.0781 71.1656 23.3688 70.9031 24.5156 70.375C25.6625 69.85 26.5406 69.1187 27.1531 68.1687C27.7656 67.2219 28.0719 66.2156 28.0719 65.1438C28.0719 64.0656 27.7906 63.1156 27.2312 62.2875C26.6719 61.4562 25.8062 60.775 24.6313 60.2375C23.8219 59.8719 22.3406 59.4437 20.1844 58.9562C18.025 58.4656 16.6906 57.9844 16.1812 57.5156C15.6594 57.0531 15.4 56.4562 15.4 55.7344C15.4 54.8969 15.7688 54.1875 16.5031 53.5969C17.2375 53.0062 18.4062 52.7094 20.0125 52.7094C21.5562 52.7094 22.7219 53.0344 23.5094 53.6781C24.3 54.325 24.7594 55.2812 24.8969 56.5438L27.4594 56.35C27.4125 55.1688 27.0844 54.1125 26.475 53.1812C25.8625 52.25 24.9875 51.5438 23.85 51.0625C22.7125 50.5812 21.4 50.3438 19.9094 50.3438C18.5562 50.3438 17.3281 50.5719 16.2219 51.0312C15.1094 51.4875 14.2688 52.1562 13.6938 53.0437ZM52.2437 11.3438C51.1687 12.2094 49.825 12.75 48.3406 12.75C46.2719 12.75 44.4531 11.7344 43.3156 10.1844L18.875 28.375H75.125L52.2437 11.3438ZM81.175 68.4531H68.8219V61.5937H79.9531V59.225H68.8219V53.0469H80.7125V50.6781H66.1625V70.8188H81.1781V68.4531H81.175ZM38.6063 52.7812C38.9313 53.8844 39.4062 55.2812 40.0344 56.9781L42.1562 62.5469H35.2844L37.5187 56.65C37.9781 55.3781 38.3406 54.0875 38.6063 52.7812Z" fill="url(#paint0_linear_902_282)"/>
</svg>
