<svg width="100" height="100" viewBox="0 0 100 100" fill="none" xmlns="http://www.w3.org/2000/svg">
<circle cx="50" cy="50" r="50" fill="#00A9FF"/>
<path d="M27.895 36.22H32.97L39.725 54.945L46.69 36.22H51.45L41.44 61H37.625L27.895 36.22ZM53.4097 56.555L63.0347 47.245C63.3147 46.965 63.6064 46.6733 63.9097 46.37C64.2131 46.0433 64.4814 45.705 64.7147 45.355C64.9714 45.005 65.1814 44.6433 65.3447 44.27C65.5081 43.8733 65.5897 43.465 65.5897 43.045C65.5897 42.5317 65.4847 42.0767 65.2747 41.68C65.0881 41.2833 64.8314 40.945 64.5047 40.665C64.1781 40.385 63.7931 40.175 63.3497 40.035C62.9297 39.8717 62.4747 39.79 61.9847 39.79C60.9347 39.79 60.0714 40.0933 59.3947 40.7C58.7181 41.3067 58.3097 42.1233 58.1697 43.15L53.7597 42.8C53.8531 41.6567 54.1214 40.6533 54.5647 39.79C55.0314 38.9033 55.6264 38.1683 56.3497 37.585C57.0731 37.0017 57.9131 36.5583 58.8697 36.255C59.8264 35.9517 60.8647 35.8 61.9847 35.8C63.1047 35.8 64.1431 35.9517 65.0997 36.255C66.0797 36.535 66.9314 36.9667 67.6547 37.55C68.3781 38.11 68.9497 38.8333 69.3697 39.72C69.7897 40.6067 69.9997 41.645 69.9997 42.835C69.9997 44.3983 69.6381 45.7517 68.9147 46.895C68.2147 48.015 67.3047 49.0883 66.1847 50.115L58.5197 57.22H69.9997V61H53.4097V56.555Z" fill="white"/>
</svg>
