<?xml version="1.0" encoding="iso-8859-1"?>
<!-- Generator: Adobe Illustrator 19.0.0, SVG Export Plug-In . SVG Version: 6.00 Build 0)  -->
<svg version="1.1" id="Layer_1" xmlns="http://www.w3.org/2000/svg" xmlns:xlink="http://www.w3.org/1999/xlink" x="0px" y="0px"
	 viewBox="0 0 247.65 247.65" style="enable-background:new 0 0 247.65 247.65;" xml:space="preserve">
<g>
	<g>
		<g>
			<path d="M212.143,99.099l-73.361-91.9c-7.656-9.59-22.246-9.606-29.914,0L35.507,99.098c-2.696,3.377-4.182,7.618-4.182,11.94
				v117.478c0,10.551,8.584,19.135,19.135,19.135h146.73c10.551,0,19.135-8.584,19.135-19.135V111.039
				C216.325,106.716,214.84,102.476,212.143,99.099z M197.19,232.651H50.46c-2.28,0-4.135-1.855-4.135-4.135V111.039
				c0-0.935,0.321-1.851,0.904-2.581l73.361-91.9c1.659-2.079,4.81-2.078,6.469,0l73.362,91.9c0.582,0.73,0.903,1.646,0.903,2.581
				v117.478h0.001C201.325,230.796,199.47,232.651,197.19,232.651z"/>
			<path d="M109.582,162.661H61.187c-4.143,0-7.5,3.358-7.5,7.5v48.394c0,4.142,3.357,7.5,7.5,7.5h48.395c4.143,0,7.5-3.358,7.5-7.5
				v-48.394C117.082,166.018,113.724,162.661,109.582,162.661z M102.082,211.054H68.687v-33.394h33.395V211.054z"/>
			<path d="M186.463,162.661h-55.259c-4.143,0-7.5,3.358-7.5,7.5c0,4.142,3.357,7.5,7.5,7.5h55.259c4.143,0,7.5-3.358,7.5-7.5
				C193.963,166.018,190.605,162.661,186.463,162.661z"/>
			<path d="M186.463,186.857h-55.259c-4.143,0-7.5,3.358-7.5,7.5c0,4.142,3.357,7.5,7.5,7.5h55.259c4.143,0,7.5-3.358,7.5-7.5
				C193.963,190.215,190.605,186.857,186.463,186.857z"/>
			<path d="M186.463,211.054h-55.259c-4.143,0-7.5,3.358-7.5,7.5c0,4.142,3.357,7.5,7.5,7.5h55.259c4.143,0,7.5-3.358,7.5-7.5
				C193.963,214.412,190.605,211.054,186.463,211.054z"/>
			<path d="M157.132,107.687l1.794,2.496c2.523,3.501,7.887,2.965,9.658-0.968l8.526-18.884c1.771-3.933-1.369-8.32-5.663-7.887
				l-20.624,2.07c-4.293,0.422-6.507,5.344-3.995,8.845l1.548,2.152l-29.241,19.064l-18.414-14.787
				c-2.877-2.309-7.003-2.184-9.733,0.291l-34.837,31.577c-3.068,2.782-3.302,7.525-0.52,10.594
				c2.785,3.071,7.528,3.299,10.594,0.52l30.095-27.278l17.661,14.183c2.529,2.03,6.076,2.206,8.792,0.435l34.082-22.22
				C156.951,107.825,157.039,107.753,157.132,107.687z"/>
		</g>
	</g>
</g>
<g>
</g>
<g>
</g>
<g>
</g>
<g>
</g>
<g>
</g>
<g>
</g>
<g>
</g>
<g>
</g>
<g>
</g>
<g>
</g>
<g>
</g>
<g>
</g>
<g>
</g>
<g>
</g>
<g>
</g>
</svg>
