<svg xmlns="http://www.w3.org/2000/svg"  viewBox="0 0 64 64" width="64px" height="64px"><rect width="2" height="7" x="31" y="9" fill="#00b39d"/><path fill="#00ccb3" d="M31.32,7.24,32,9l-1.87.29A5.983,5.983,0,0,1,23.6,5.52l-.68-1.76,1.87-.3A5.99,5.99,0,0,1,31.32,7.24Z"/><path fill="#00ccb3" d="M41.08,3.76,40.4,5.52a5.983,5.983,0,0,1-6.53,3.77L32,9l.68-1.76a5.99,5.99,0,0,1,6.53-3.78Z"/><circle cx="32" cy="23" r="9" fill="#ffd422"/><path fill="#1e81ce" d="M51,57v2a2.006,2.006,0,0,1-2,2H15a2.006,2.006,0,0,1-2-2V57Z"/><path fill="#3d9ae2" d="M54,51h5a6,6,0,0,1-6,6H11a6.009,6.009,0,0,1-6-6H54Z"/><path fill="#ff9811" d="M46,39a2.006,2.006,0,0,1,2,2v2a2.006,2.006,0,0,1-2,2H34a2.006,2.006,0,0,1-2-2V41a2.006,2.006,0,0,1,2-2H46Z"/><path fill="#ff9811" d="M26,45H18a2.006,2.006,0,0,1-2-2V41a2.006,2.006,0,0,1,2-2H30a2.006,2.006,0,0,1,2,2v2a2.006,2.006,0,0,1-2,2H26Z"/><path fill="#ffa733" d="M32,45h6a2.006,2.006,0,0,1,2,2v2a2.006,2.006,0,0,1-2,2H26a2.006,2.006,0,0,1-2-2V47a2.006,2.006,0,0,1,2-2h6Z"/><path fill="#ee8700" d="M32,33h6a2.006,2.006,0,0,1,2,2v2a2.006,2.006,0,0,1-2,2H26a2.006,2.006,0,0,1-2-2V35a2.006,2.006,0,0,1,2-2h6Z"/><path fill="#ee8700" d="M48,45h6a2.006,2.006,0,0,1,2,2v2a2.006,2.006,0,0,1-2,2H42a2.006,2.006,0,0,1-2-2V47a2.006,2.006,0,0,1,2-2h6Z"/><path fill="#ee8700" d="M22,45a2.006,2.006,0,0,1,2,2v2a2.006,2.006,0,0,1-2,2H10a2.006,2.006,0,0,1-2-2V47a2.006,2.006,0,0,1,2-2H22Z"/><rect width="2" height="3" x="15" y="45" fill="#cc7400"/><rect width="2" height="3" x="19" y="45" fill="#cc7400"/><rect width="2" height="3" x="11" y="45" fill="#cc7400"/><rect width="2" height="3" x="31" y="45" fill="#ee8700"/><rect width="2" height="3" x="35" y="45" fill="#ee8700"/><rect width="2" height="3" x="27" y="45" fill="#ee8700"/><rect width="2" height="3" x="47" y="45" fill="#cc7400"/><rect width="2" height="3" x="51" y="45" fill="#cc7400"/><rect width="2" height="3" x="43" y="45" fill="#cc7400"/><rect width="2" height="3" x="23" y="39" fill="#cc7400"/><rect width="2" height="3" x="27" y="39" fill="#cc7400"/><rect width="2" height="3" x="19" y="39" fill="#cc7400"/><rect width="2" height="3" x="39" y="39" fill="#cc7400"/><rect width="2" height="3" x="43" y="39" fill="#cc7400"/><rect width="2" height="3" x="35" y="39" fill="#cc7400"/><rect width="2" height="3" x="31" y="33" fill="#cc7400"/><rect width="2" height="3" x="35" y="33" fill="#cc7400"/><rect width="2" height="3" x="27" y="33" fill="#cc7400"/><path fill="#ff5023" d="M33,22H31a1,1,0,0,1,0-2h2a1,1,0,0,1,1,1h2a3,3,0,0,0-3-3V17H31v1a3,3,0,0,0,0,6h2a1,1,0,0,1,0,2H31a1,1,0,0,1-1-1H28a3,3,0,0,0,3,3v1h2V28a3,3,0,0,0,0-6Z"/><polygon fill="#ff9811" points="14 22 12 22 12 24 10 24 10 26 12 26 12 28 14 28 14 26 16 26 16 24 14 24 14 22"/><polygon fill="#ff9811" points="54 24 52 24 52 22 50 22 50 24 48 24 48 26 50 26 50 28 52 28 52 26 54 26 54 24"/></svg>