<svg width="80" height="80" viewBox="0 0 80 80" fill="none" xmlns="http://www.w3.org/2000/svg">
<path d="M40 80C29.3156 80 19.2708 75.8392 11.7157 68.2842C4.16075 60.7292 0 50.6844 0 40C0 29.3156 4.16075 19.2708 11.7157 11.7157C19.2708 4.16075 29.3156 0 40 0C50.6844 0 60.7292 4.16075 68.2842 11.7157C75.8392 19.2708 80 29.3156 80 40C80 50.6844 75.8392 60.7292 68.2842 68.2842C60.7292 75.8392 50.6844 80 40 80ZM40 4C20.1495 4 4 20.1495 4 40C4 59.8505 20.1495 76 40 76C59.8505 76 76 59.8505 76 40C76 20.1495 59.8505 4 40 4Z" fill="#00A9FF"/>
<path d="M19.7642 68.8997L31.743 34.2182L60.2358 11.1003L48.2571 45.7817L19.7642 68.8997ZM35.1506 36.6043L28.1156 56.9727L44.8493 43.3955L51.8845 23.0273L35.1506 36.6043Z" fill="#00A9FF"/>
</svg>
