<svg width="80" height="80" viewBox="0 0 80 80" fill="none" xmlns="http://www.w3.org/2000/svg">
<path d="M70 76H6C2.69163 76 0 73.3085 0 70V62C0 60.8954 0.8955 60 2 60C3.1045 60 4 60.8954 4 62V70C4 71.1027 4.89725 72 6 72H70C71.1028 72 72 71.1027 72 70V62C72 60.8954 72.8954 60 74 60C75.1046 60 76 60.8954 76 62V70C76 73.3085 73.3085 76 70 76Z" fill="white"/>
<path d="M59.4141 34.5858L39.4141 14.5857C38.633 13.8047 37.3668 13.8047 36.5856 14.5857L16.5856 34.5858C15.8046 35.3669 15.8046 36.6331 16.5856 37.4141C17.3666 38.1951 18.633 38.1951 19.4141 37.4141L36 20.8284V62C36 63.1046 36.8955 64 38 64C39.1045 64 40 63.1046 40 62V20.8284L56.5859 37.4141C56.9764 37.8047 57.4881 38 58 38C58.5119 38 59.0236 37.8047 59.4141 37.4141C60.1953 36.6331 60.1953 35.3669 59.4141 34.5858Z" fill="white"/>
</svg>
