<svg xmlns="http://www.w3.org/2000/svg"  viewBox="0 0 256 256" width="64px" height="64px"><rect width="187.481" height="123.515" x="34.259" y="111.002" fill="#63bce7"/><rect width="10.515" height="123.515" x="34.259" y="111.002" fill="#6377e7"/><rect width="10.515" height="123.515" x="211.226" y="111.002" fill="#67dceb"/><path fill="#f8af23" d="M141.628,66.446l17.379-7.149c10.817-4.45,22.689,3.504,22.689,15.201v7.424H128V71.269L141.628,66.446z"/><rect width="19.23" height="123.515" x="178.305" y="111.002" fill="#9e9e9e"/><rect width="19.23" height="123.515" x="58.465" y="111.002" fill="#9e9e9e"/><path fill="#f46275" d="M226.066,111.002H29.934c-2.761,0-5-2.239-5-5V86.922c0-2.761,2.239-5,5-5h196.132c2.761,0,5,2.239,5,5v19.079 C231.066,108.763,228.828,111.002,226.066,111.002z"/><path fill="#f43075" d="M35.449,106.002V86.922c0-2.761,2.239-5,5-5H29.934c-2.761,0-5,2.239-5,5v19.079c0,2.761,2.239,5,5,5h10.515 C37.687,111.002,35.449,108.763,35.449,106.002z"/><path fill="#f48875" d="M220.551,106.002V86.922c0-2.761-2.239-5-5-5h10.515c2.761,0,5,2.239,5,5v19.079c0,2.761-2.239,5-5,5 h-10.515C218.313,111.002,220.551,108.763,220.551,106.002z"/><path fill="#f8af23" d="M114.372,66.446l-17.379-7.149c-10.817-4.45-22.689,3.504-22.689,15.201v7.424H128V71.269L114.372,66.446z"/><path fill="#f87023" d="M95.999,58.924c-10.537-3.586-21.695,4.234-21.695,15.574v7.424h10.515v-7.424 C84.819,67.021,89.673,61.08,95.999,58.924z"/><path fill="#f8d323" d="M160.001,58.924c10.537-3.586,21.695,4.234,21.695,15.574v7.424h-10.515v-7.424 C171.181,67.021,166.327,61.08,160.001,58.924z"/><path fill="#63bce7" d="M136.566,60.617h-17.133c-2.784,0-5.062,2.278-5.062,5.062v11.183c0,2.784,2.278,5.062,5.062,5.062h17.133 c2.784,0,5.062-2.278,5.062-5.062V65.678C141.628,62.894,139.35,60.617,136.566,60.617z"/><path fill="#f8af23" d="M158.769,142.113c0-2.467-2-4.467-4.467-4.467s-4.467,2-4.467,4.467c0,0.535,0.099,1.046,0.272,1.521 l-11.596,8.953c-0.822,0.635-2.024,0.282-2.373-0.696l-5.419-15.173c1.062-0.817,1.75-2.097,1.75-3.54 c0-2.467-2-4.467-4.467-4.467c-2.467,0-4.467,2-4.467,4.467c0,1.444,0.688,2.723,1.75,3.54l-5.419,15.173 c-0.349,0.978-1.551,1.33-2.373,0.696l-11.596-8.953c0.173-0.476,0.272-0.986,0.272-1.521c0-2.467-2-4.467-4.467-4.467 c-2.467,0-4.467,2-4.467,4.467c0,2.082,1.426,3.825,3.352,4.321v27.136c0,0.844,0.684,1.528,1.528,1.528H128h25.888 c0.844,0,1.528-0.684,1.528-1.528v-27.136C157.343,145.939,158.769,144.195,158.769,142.113z"/><path fill="#f8af23" d="M195.046,208.483H60.954c-6.6,0-12-5.4-12-12v-9.384c0-6.6,5.4-12,12-12h134.091c6.6,0,12,5.4,12,12v9.384 C207.046,203.083,201.646,208.483,195.046,208.483z"/><path fill="#3f3679" d="M110.525,182.46v2.568c0,0.349-0.283,0.633-0.633,0.633h-6.909c-0.349,0-0.633,0.283-0.633,0.633v3.104 c0,0.349,0.283,0.633,0.633,0.633h5.048c0.349,0,0.633,0.283,0.633,0.633v2.399c0,0.349-0.283,0.633-0.633,0.633h-5.048 c-0.349,0-0.633,0.283-0.633,0.633v6.796c0,0.349-0.283,0.633-0.633,0.633h-3.555c-0.349,0-0.633-0.283-0.633-0.633V182.46 c0-0.349,0.283-0.633,0.633-0.633h11.729C110.242,181.828,110.525,182.111,110.525,182.46z"/><path fill="#3f3679" d="M123.604,201.755c-0.227,0-0.436-0.121-0.549-0.318l-4.129-7.207h-1.1v6.893 c0,0.349-0.283,0.633-0.633,0.633h-3.555c-0.349,0-0.633-0.283-0.633-0.633V182.46c0-0.349,0.283-0.633,0.633-0.633h7.598 c1.578,0,2.912,0.272,4.002,0.817c1.089,0.546,1.907,1.293,2.452,2.241c0.545,0.949,0.818,2.034,0.818,3.255 c0,1.447-0.399,2.678-1.198,3.693c-0.666,0.846-1.583,1.469-2.751,1.871c-0.37,0.127-0.509,0.581-0.307,0.915l3.731,6.175 c0.255,0.422-0.049,0.96-0.541,0.96H123.604z M117.826,190.299c0,0.349,0.283,0.633,0.633,0.633h2.354 c0.959,0,1.664-0.211,2.115-0.634c0.45-0.423,0.676-1.047,0.676-1.874c0-0.789-0.231-1.409-0.691-1.86 c-0.461-0.451-1.161-0.677-2.1-0.677h-2.354c-0.349,0-0.633,0.283-0.633,0.633V190.299z"/><path fill="#3f3679" d="M135.752,186.293v2.907c0,0.349,0.283,0.633,0.633,0.633h5.47c0.349,0,0.633,0.283,0.633,0.633v2.37 c0,0.349-0.283,0.633-0.633,0.633h-5.47c-0.349,0-0.633,0.283-0.633,0.633v3.16c0,0.349,0.283,0.633,0.633,0.633h6.316 c0.349,0,0.633,0.283,0.633,0.633v2.596c0,0.349-0.283,0.633-0.633,0.633h-11.137c-0.349,0-0.633-0.283-0.633-0.633V182.46 c0-0.349,0.283-0.633,0.633-0.633h11.137c0.349,0,0.633,0.283,0.633,0.633v2.568c0,0.349-0.283,0.633-0.633,0.633h-6.316 C136.035,185.661,135.752,185.944,135.752,186.293z"/><path fill="#3f3679" d="M150.887,186.293v2.907c0,0.349,0.283,0.633,0.633,0.633h5.47c0.349,0,0.633,0.283,0.633,0.633v2.37 c0,0.349-0.283,0.633-0.633,0.633h-5.47c-0.349,0-0.633,0.283-0.633,0.633v3.16c0,0.349,0.283,0.633,0.633,0.633h6.316 c0.349,0,0.633,0.283,0.633,0.633v2.596c0,0.349-0.283,0.633-0.633,0.633h-11.137c-0.349,0-0.633-0.283-0.633-0.633V182.46 c0-0.349,0.283-0.633,0.633-0.633h11.137c0.349,0,0.633,0.283,0.633,0.633v2.568c0,0.349-0.283,0.633-0.633,0.633h-6.316 C151.17,185.661,150.887,185.944,150.887,186.293z"/><g><path fill="#f8af23" d="M54.15,28.907l1.042,2.111c0.694,1.406,2.035,2.381,3.587,2.606l2.33,0.339 c3.908,0.568,5.468,5.37,2.64,8.126l-1.686,1.643c-1.123,1.094-1.635,2.671-1.37,4.217l0.398,2.32 c0.667,3.892-3.417,6.86-6.912,5.022l-2.084-1.095c-1.388-0.73-3.046-0.73-4.434,0l-2.084,1.095 c-3.495,1.837-7.58-1.13-6.912-5.022l0.398-2.32c0.265-1.545-0.247-3.122-1.37-4.217l-1.686-1.643 c-2.828-2.756-1.267-7.558,2.64-8.126l2.33-0.339c1.552-0.225,2.893-1.2,3.587-2.606l1.042-2.111 C47.354,25.366,52.403,25.366,54.15,28.907z"/><path fill="#f87023" d="M49.18,50.268l0.398-2.32c0.265-1.545-0.247-3.122-1.37-4.217l-1.686-1.643 c-2.828-2.756-1.267-7.558,2.64-8.126l2.33-0.339c1.552-0.225,2.893-1.2,3.587-2.606l0.056-0.114l-0.986-1.997 c-1.747-3.541-6.797-3.541-8.544,0l-1.042,2.111c-0.694,1.406-2.035,2.381-3.587,2.606l-2.33,0.339 c-3.908,0.568-5.468,5.37-2.64,8.126l1.686,1.643c1.123,1.094,1.635,2.671,1.37,4.217l-0.398,2.32 c-0.667,3.892,3.417,6.859,6.912,5.022l2.084-1.095c0.691-0.363,1.449-0.545,2.207-0.547 C49.258,52.709,48.962,51.541,49.18,50.268z"/><path fill="#f8af23" d="M201.85,28.907l-1.042,2.111c-0.694,1.406-2.035,2.381-3.587,2.606l-2.33,0.339 c-3.908,0.568-5.468,5.37-2.64,8.126l1.686,1.643c1.123,1.094,1.635,2.671,1.37,4.217l-0.398,2.32 c-0.667,3.892,3.417,6.86,6.912,5.022l2.084-1.095c1.388-0.73,3.046-0.73,4.434,0l2.084,1.095c3.495,1.837,7.58-1.13,6.912-5.022 l-0.398-2.32c-0.265-1.545,0.247-3.122,1.37-4.217l1.686-1.643c2.828-2.756,1.267-7.558-2.64-8.126l-2.33-0.339 c-1.552-0.225-2.893-1.2-3.587-2.606l-1.042-2.111C208.646,25.366,203.597,25.366,201.85,28.907z"/><path fill="#f8d323" d="M206.82,50.268l-0.398-2.32c-0.265-1.545,0.247-3.122,1.37-4.217l1.686-1.643 c2.828-2.756,1.267-7.558-2.64-8.126l-2.33-0.339c-1.552-0.225-2.893-1.2-3.587-2.606l-0.056-0.114l0.986-1.997 c1.747-3.541,6.797-3.541,8.544,0l1.042,2.111c0.694,1.406,2.035,2.381,3.587,2.606l2.33,0.339 c3.908,0.568,5.468,5.37,2.64,8.126l-1.686,1.643c-1.123,1.094-1.635,2.671-1.37,4.217l0.398,2.32 c0.667,3.892-3.417,6.859-6.912,5.022l-2.084-1.095c-0.691-0.363-1.449-0.545-2.207-0.547 C206.742,52.709,207.038,51.541,206.82,50.268z"/></g><g><path fill="#f8af23" d="M132.272,12.385l1.042,2.111c0.694,1.406,2.035,2.381,3.587,2.606l2.33,0.339 c3.908,0.568,5.468,5.37,2.64,8.126l-1.686,1.643c-1.123,1.094-1.635,2.671-1.37,4.217l0.398,2.32 c0.667,3.892-3.417,6.86-6.912,5.022l-2.084-1.095c-1.388-0.73-3.046-0.73-4.434,0l-2.084,1.095 c-3.495,1.837-7.58-1.13-6.912-5.022l0.398-2.32c0.265-1.545-0.247-3.122-1.37-4.217l-1.686-1.643 c-2.828-2.756-1.267-7.558,2.64-8.126l2.33-0.339c1.552-0.225,2.893-1.2,3.587-2.606l1.042-2.111 C125.475,8.844,130.525,8.844,132.272,12.385z"/><path fill="#f87023" d="M127.302,33.746l0.398-2.32c0.265-1.545-0.247-3.122-1.37-4.217l-1.686-1.643 c-2.828-2.756-1.267-7.558,2.64-8.126l2.33-0.339c1.552-0.225,2.893-1.2,3.587-2.606l0.056-0.114l-0.986-1.997 c-1.747-3.541-6.797-3.541-8.544,0l-1.042,2.111c-0.694,1.406-2.035,2.381-3.587,2.606l-2.33,0.339 c-3.908,0.568-5.468,5.37-2.64,8.126l1.686,1.643c1.123,1.094,1.635,2.671,1.37,4.217l-0.398,2.32 c-0.667,3.892,3.417,6.859,6.912,5.022l2.084-1.095c0.691-0.363,1.449-0.545,2.207-0.547 C127.38,36.187,127.084,35.018,127.302,33.746z"/><path fill="#3f3679" d="M25.89,244.771H7.39c-0.829,0-1.5,0.671-1.5,1.5s0.671,1.5,1.5,1.5h18.5c0.829,0,1.5-0.671,1.5-1.5 S26.718,244.771,25.89,244.771z"/><path fill="#3f3679" d="M248.61,244.771h-18.5c-0.828,0-1.5,0.671-1.5,1.5s0.672,1.5,1.5,1.5h18.5c0.828,0,1.5-0.671,1.5-1.5 S249.438,244.771,248.61,244.771z"/><path fill="#3f3679" d="M215.337,244.771H40.663c-0.829,0-1.5,0.671-1.5,1.5s0.671,1.5,1.5,1.5h174.674c0.828,0,1.5-0.671,1.5-1.5 S216.165,244.771,215.337,244.771z"/><path fill="#3f3679" d="M7.39,236.017h7.944c0.829,0,1.5-0.671,1.5-1.5s-0.671-1.5-1.5-1.5H7.39c-0.829,0-1.5,0.671-1.5,1.5 S6.561,236.017,7.39,236.017z"/><path fill="#3f3679" d="M240.667,236.017h7.943c0.828,0,1.5-0.671,1.5-1.5s-0.672-1.5-1.5-1.5h-7.943c-0.828,0-1.5,0.671-1.5,1.5 S239.839,236.017,240.667,236.017z"/><path fill="#3f3679" d="M231.61,234.517c0-0.829-0.672-1.5-1.5-1.5h-6.87V112.501h2.826c3.584,0,6.5-2.916,6.5-6.5V86.922 c0-3.584-2.916-6.5-6.5-6.5h-42.87v-5.925c0-5.994-2.974-11.565-7.953-14.901s-11.262-3.968-16.807-1.687l-15.464,6.361 c-0.646-2.944-3.271-5.154-6.406-5.154h-17.133c-3.135,0-5.759,2.211-6.406,5.154L97.564,57.91 c-5.545-2.28-11.827-1.65-16.807,1.687c-4.98,3.336-7.953,8.907-7.953,14.901v5.925H29.934c-3.584,0-6.5,2.916-6.5,6.5v19.079 c0,3.584,2.916,6.5,6.5,6.5h2.826v120.515h-6.87c-0.829,0-1.5,0.671-1.5,1.5s0.671,1.5,1.5,1.5h8.37h24.206h19.229h100.61h19.229 h24.206h8.37C230.938,236.017,231.61,235.345,231.61,234.517z M159.577,60.684c4.615-1.899,9.847-1.374,13.996,1.404 c4.147,2.778,6.623,7.417,6.623,12.409v5.925h-38.127c0.667-1.027,1.058-2.248,1.058-3.562v-2.076h23.74 c0.828,0,1.5-0.671,1.5-1.5s-0.672-1.5-1.5-1.5h-23.74v-4.334L159.577,60.684z M115.872,65.678c0-1.964,1.598-3.562,3.562-3.562 h17.133c1.964,0,3.562,1.598,3.562,3.562v11.183c0,1.964-1.598,3.562-3.562,3.562H128h-8.566c-1.964,0-3.562-1.598-3.562-3.562 V65.678z M75.804,74.498c0-4.992,2.476-9.631,6.623-12.409c4.147-2.778,9.379-3.304,13.996-1.404l16.449,6.766v4.334H89.131 c-0.829,0-1.5,0.671-1.5,1.5s0.671,1.5,1.5,1.5h23.741v2.076c0,1.313,0.392,2.535,1.058,3.562H75.804V74.498z M26.434,106.001 v-8.04h151.871c0.828,0,1.5-0.671,1.5-1.5s-0.672-1.5-1.5-1.5H26.434v-8.04c0-1.93,1.57-3.5,3.5-3.5h44.371h45.129H128h8.566 h45.13h44.37c1.93,0,3.5,1.57,3.5,3.5v19.079c0,1.93-1.57,3.5-3.5,3.5h-4.326h-24.206h-19.229H77.695H58.465H34.259h-4.326 C28.004,109.501,26.434,107.931,26.434,106.001z M195.046,206.983H60.955c-5.79,0-10.5-4.71-10.5-10.5v-9.384 c0-5.79,4.71-10.5,10.5-10.5h41.157h51.777h41.157c5.79,0,10.5,4.71,10.5,10.5v9.384 C205.546,202.273,200.836,206.983,195.046,206.983z M176.805,209.983v23.033h-97.61v-23.033H176.805z M68.08,153.961 c0.829,0,1.5-0.671,1.5-1.5v-39.96h6.615v61.098H69.58v-7.582c0-0.829-0.671-1.5-1.5-1.5s-1.5,0.671-1.5,1.5v7.582h-5.625 c-0.334,0-0.661,0.026-0.989,0.05v-61.148h6.615v39.96C66.58,153.29,67.251,153.961,68.08,153.961z M176.805,112.501v61.098 h-19.891c0-0.01,0.003-0.019,0.003-0.028v-26.097c2.02-0.982,3.353-3.046,3.353-5.36c0-3.291-2.677-5.967-5.968-5.967 c-3.29,0-5.967,2.677-5.967,5.967c0,0.312,0.025,0.625,0.075,0.933l-10.86,8.341l-5.089-14.249 c0.968-1.083,1.507-2.478,1.507-3.96c0-3.291-2.677-5.967-5.968-5.967c-3.291,0-5.967,2.677-5.967,5.967 c0,1.483,0.538,2.876,1.505,3.959l-5.131,14.263l-10.816-8.351c0.05-0.31,0.075-0.623,0.075-0.936 c0-3.291-2.677-5.967-5.967-5.967s-5.967,2.677-5.967,5.967c0,2.314,1.332,4.378,3.353,5.36v26.097 c0,0.01,0.003,0.019,0.003,0.028H79.195v-61.098H176.805z M102.083,173.571v-27.136c0-0.685-0.463-1.282-1.126-1.453 c-1.311-0.337-2.226-1.517-2.226-2.869c0-1.636,1.331-2.967,2.967-2.967s2.967,1.331,2.967,2.967c0,0.338-0.061,0.678-0.182,1.01 c-0.222,0.613-0.023,1.3,0.494,1.699l11.597,8.953c0.765,0.59,1.775,0.781,2.702,0.509s1.675-0.978,2-1.888l5.419-15.173 c0.219-0.613,0.018-1.297-0.499-1.694c-0.74-0.568-1.164-1.425-1.164-2.351c0-1.636,1.331-2.967,2.967-2.967 c1.637,0,2.968,1.331,2.968,2.967c0,0.925-0.425,1.782-1.164,2.351c-0.517,0.396-0.718,1.081-0.499,1.693l5.419,15.172 c0.324,0.91,1.071,1.616,1.998,1.888c0.929,0.271,1.938,0.082,2.705-0.508l11.597-8.953c0.517-0.399,0.716-1.086,0.493-1.7 c-0.121-0.331-0.182-0.67-0.182-1.009c0-1.636,1.331-2.967,2.967-2.967c1.637,0,2.968,1.331,2.968,2.967 c0,1.352-0.915,2.531-2.227,2.869c-0.662,0.17-1.126,0.768-1.126,1.453l-0.028,27.165L102.083,173.571z M196.034,173.649 c-0.328-0.024-0.655-0.05-0.988-0.05h-5.626v-7.582c0-0.829-0.672-1.5-1.5-1.5s-1.5,0.671-1.5,1.5v7.582h-6.615v-61.098h6.615 v39.96c0,0.829,0.672,1.5,1.5,1.5s1.5-0.671,1.5-1.5v-39.96h6.614V173.649z M35.759,112.501h21.206v61.7 c-5.502,1.706-9.511,6.842-9.511,12.897v9.384c0,6.056,4.008,11.192,9.511,12.897v23.636H35.759V112.501z M59.965,233.017 v-23.083c0.328,0.024,0.655,0.05,0.989,0.05h15.24v23.033H59.965z M179.805,233.017v-23.033h15.241 c0.334,0,0.661-0.026,0.988-0.05v23.083H179.805z M199.034,233.017v-23.635c5.503-1.705,9.512-6.842,9.512-12.898v-9.384 c0-6.056-4.009-11.193-9.512-12.898v-61.7h21.206v120.515H199.034z"/><path fill="#3f3679" d="M197.534,97.962h16.566c0.828,0,1.5-0.671,1.5-1.5s-0.672-1.5-1.5-1.5h-16.566c-0.828,0-1.5,0.671-1.5,1.5 S196.706,97.962,197.534,97.962z"/><path fill="#3f3679" d="M36.646,44.805c0.77,0.75,1.121,1.831,0.939,2.889l-0.398,2.321c-0.406,2.367,0.549,4.714,2.492,6.126 c1.098,0.798,2.382,1.204,3.676,1.203c0.995,0,1.996-0.24,2.92-0.726l2.084-1.095c0.951-0.5,2.087-0.5,3.038,0l2.083,1.095 c2.125,1.118,4.654,0.934,6.597-0.477c1.943-1.412,2.897-3.759,2.492-6.126l-0.398-2.32c-0.182-1.059,0.169-2.139,0.938-2.889 l1.686-1.643c1.72-1.677,2.328-4.137,1.585-6.421s-2.68-3.918-5.057-4.263l-2.33-0.338c-1.063-0.155-1.982-0.822-2.458-1.786 l-1.042-2.111v0c-1.063-2.154-3.215-3.492-5.618-3.492c-2.402,0-4.554,1.338-5.617,3.492l-1.042,2.11 c-0.476,0.964-1.395,1.631-2.458,1.786l-2.33,0.338c-2.377,0.345-4.314,1.979-5.057,4.263s-0.135,4.745,1.585,6.421 L36.646,44.805z M36.229,37.668c0.393-1.208,1.377-2.039,2.635-2.222l2.33-0.338c2.041-0.296,3.804-1.578,4.717-3.427l1.042-2.11 c0.562-1.14,1.656-1.82,2.927-1.82c1.271,0,2.365,0.68,2.927,1.82l1.042,2.11c0.913,1.849,2.675,3.13,4.717,3.427l2.33,0.338 c1.257,0.183,2.242,1.013,2.635,2.222c0.393,1.208,0.084,2.459-0.826,3.346l-1.687,1.644c-1.476,1.439-2.149,3.512-1.801,5.544 l0.398,2.32c0.215,1.252-0.271,2.446-1.298,3.192c-1.027,0.747-2.313,0.839-3.438,0.249l-2.083-1.095 c-1.826-0.959-4.005-0.96-5.83,0l-2.083,1.095c-1.126,0.591-2.41,0.498-3.438-0.249s-1.513-1.94-1.298-3.192l0.398-2.321 c0.348-2.032-0.326-4.105-1.802-5.544l-1.686-1.643C36.145,40.127,35.836,38.876,36.229,37.668z"/><path fill="#3f3679" d="M192.89,44.806c0.77,0.75,1.12,1.83,0.938,2.889l-0.397,2.32c-0.406,2.367,0.549,4.715,2.491,6.126 c1.099,0.798,2.383,1.204,3.677,1.204c0.995,0,1.996-0.24,2.921-0.727l2.084-1.095c0.951-0.5,2.086-0.5,3.037,0l2.084,1.095 c2.125,1.118,4.652,0.937,6.596-0.477c1.943-1.412,2.898-3.759,2.493-6.127l-0.398-2.32c-0.182-1.059,0.169-2.14,0.938-2.889 l1.686-1.643c1.72-1.676,2.328-4.137,1.586-6.421c-0.742-2.284-2.68-3.918-5.057-4.263l-2.33-0.338 c-1.063-0.155-1.981-0.822-2.458-1.786l-1.042-2.11c-1.062-2.154-3.214-3.492-5.615-3.492c-0.001,0-0.001,0-0.001,0 c-2.401,0-4.555,1.338-5.617,3.492l-1.043,2.111c-0.475,0.963-1.394,1.631-2.457,1.786l-2.329,0.338 c-2.377,0.345-4.314,1.979-5.057,4.263s-0.135,4.745,1.585,6.422L192.89,44.806z M192.473,37.668 c0.393-1.208,1.377-2.039,2.635-2.221l2.329-0.338c2.041-0.297,3.805-1.578,4.716-3.427l1.042-2.111 c0.562-1.14,1.657-1.82,2.928-1.82s2.364,0.68,2.927,1.82l1.042,2.111c0.913,1.849,2.676,3.13,4.716,3.427l2.33,0.338 c1.258,0.183,2.242,1.013,2.635,2.222c0.393,1.208,0.084,2.459-0.826,3.346l-1.686,1.643c-1.477,1.439-2.149,3.512-1.802,5.545 l0.398,2.32c0.215,1.252-0.271,2.446-1.299,3.192c-1.027,0.747-2.312,0.84-3.437,0.249l-2.084-1.095 c-1.826-0.96-4.004-0.96-5.83,0l-2.084,1.095c-1.125,0.592-2.411,0.498-3.438-0.249c-1.027-0.747-1.513-1.94-1.298-3.192 l0.397-2.32c0.349-2.032-0.324-4.105-1.802-5.545l-1.686-1.643C192.389,40.127,192.079,38.876,192.473,37.668z"/><path fill="#3f3679" d="M114.768,28.284c0.77,0.75,1.12,1.83,0.938,2.889l-0.398,2.32c-0.406,2.367,0.549,4.714,2.492,6.126 c1.098,0.797,2.382,1.203,3.676,1.203c0.996,0,1.996-0.24,2.921-0.726L126.481,39c0.951-0.5,2.086-0.5,3.038,0l2.084,1.096 c2.126,1.118,4.654,0.934,6.597-0.477c1.942-1.412,2.897-3.759,2.492-6.127l-0.398-2.32c-0.182-1.059,0.17-2.139,0.938-2.889 l1.687-1.643c1.72-1.677,2.327-4.137,1.585-6.421s-2.68-3.918-5.057-4.263l-2.33-0.338c-1.063-0.155-1.981-0.822-2.457-1.786 l-1.041-2.111c-0.001,0-0.001,0-0.001,0c-1.063-2.154-3.216-3.492-5.618-3.492c-2.401,0-4.554,1.338-5.617,3.492l-1.042,2.111 c-0.476,0.963-1.394,1.631-2.458,1.786l-2.33,0.338c-2.377,0.345-4.314,1.979-5.057,4.263s-0.135,4.745,1.585,6.421 L114.768,28.284z M114.35,21.146c0.393-1.208,1.378-2.039,2.635-2.221l2.33-0.338c2.041-0.297,3.804-1.578,4.716-3.427 l1.042-2.111c0.562-1.14,1.656-1.82,2.927-1.82s2.365,0.68,2.928,1.82l1.041,2.111c0.913,1.849,2.676,3.13,4.716,3.427 l2.33,0.338c1.257,0.183,2.242,1.013,2.635,2.222c0.393,1.208,0.084,2.459-0.825,3.346l-1.687,1.644 c-1.477,1.439-2.149,3.512-1.802,5.544l0.398,2.32c0.215,1.252-0.271,2.446-1.299,3.192c-1.027,0.747-2.312,0.84-3.437,0.249 l-2.084-1.096c-1.826-0.96-4.005-0.96-5.83,0l-2.084,1.096c-1.124,0.591-2.409,0.498-3.437-0.249s-1.513-1.94-1.298-3.192 l0.398-2.32c0.349-2.033-0.325-4.105-1.802-5.544l-1.686-1.643C114.267,23.605,113.958,22.354,114.35,21.146z"/></g></svg>