<svg width="61" height="40" viewBox="0 0 61 40" fill="none" xmlns="http://www.w3.org/2000/svg">
<path d="M59.4749 36.8H13.725C12.8828 36.8 12.2 36.1173 12.2 35.275C12.2 34.4327 12.8828 33.75 13.725 33.75H59.4749C60.3172 33.75 61 34.4327 61 35.275C61 36.1173 60.3172 36.8 59.4749 36.8Z" fill="#00A9FF"/>
<path d="M59.4749 21.55H13.725C12.8828 21.55 12.2 20.8673 12.2 20.025C12.2 19.1827 12.8828 18.5 13.725 18.5H59.4749C60.3172 18.5 61 19.1827 61 20.025C61 20.8673 60.3172 21.55 59.4749 21.55Z" fill="#00A9FF"/>
<path d="M59.4749 6.3H13.725C12.8828 6.3 12.2 5.6172 12.2 4.775C12.2 3.9328 12.8828 3.25 13.725 3.25H59.4749C60.3172 3.25 61 3.9328 61 4.775C61 5.6172 60.3172 6.3 59.4749 6.3Z" fill="#00A9FF"/>
<path d="M4.575 9.3502C2.05236 9.3502 0 7.2978 0 4.7752C0 2.2526 2.05236 0.200195 4.575 0.200195C7.09764 0.200195 9.15 2.2526 9.15 4.7752C9.15 7.2978 7.09764 9.3502 4.575 9.3502ZM4.575 3.2502C3.73415 3.2502 3.05 3.9343 3.05 4.7752C3.05 5.616 3.73415 6.30019 4.575 6.30019C5.41585 6.30019 6.1 5.616 6.1 4.7752C6.1 3.9343 5.41585 3.2502 4.575 3.2502Z" fill="#00A9FF"/>
<path d="M4.575 24.6002C2.05236 24.6002 0 22.5479 0 20.0252C0 17.5026 2.05236 15.4502 4.575 15.4502C7.09764 15.4502 9.15 17.5026 9.15 20.0252C9.15 22.5479 7.09764 24.6002 4.575 24.6002ZM4.575 18.5002C3.73415 18.5002 3.05 19.1843 3.05 20.0252C3.05 20.866 3.73415 21.5502 4.575 21.5502C5.41585 21.5502 6.1 20.866 6.1 20.0252C6.1 19.1843 5.41585 18.5002 4.575 18.5002Z" fill="#00A9FF"/>
<path d="M4.575 39.8502C2.05236 39.8502 0 37.7979 0 35.2752C0 32.7525 2.05236 30.7002 4.575 30.7002C7.09764 30.7002 9.15 32.7525 9.15 35.2752C9.15 37.7979 7.09764 39.8502 4.575 39.8502ZM4.575 33.7502C3.73415 33.7502 3.05 34.4343 3.05 35.2752C3.05 36.116 3.73415 36.8002 4.575 36.8002C5.41585 36.8002 6.1 36.116 6.1 35.2752C6.1 34.4343 5.41585 33.7502 4.575 33.7502Z" fill="#00A9FF"/>
</svg>
