<svg width="84" height="84" viewBox="0 0 84 84" fill="none" xmlns="http://www.w3.org/2000/svg">
<path d="M55.9607 81.4871C55.6495 81.4871 55.3389 81.4179 55.0527 81.2806C54.5378 81.0338 54.1457 80.5879 53.9667 80.0457C52.2588 74.8745 47.4498 71.4 42 71.4C36.5502 71.4 31.7412 74.8744 30.0334 80.0456C29.8544 80.5878 29.4622 81.0336 28.9474 81.2805C28.4327 81.5275 27.8394 81.554 27.3045 81.3543C22.9287 79.7195 18.8798 77.379 15.2699 74.3972C14.8299 74.0338 14.5569 73.5072 14.5134 72.9384C14.4698 72.3694 14.6597 71.8074 15.0391 71.3814C18.6597 67.3171 19.2622 61.4171 16.5388 56.7C14.2947 52.813 10.1085 50.3983 5.61396 50.3983C4.76083 50.3983 3.90587 50.4858 3.07282 50.6583C2.51318 50.7747 1.93095 50.6574 1.45976 50.3342C0.988575 50.0114 0.669244 49.5105 0.575269 48.9471C0.193594 46.6548 0 44.3174 0 42C0 39.6827 0.193594 37.3454 0.5754 35.0529C0.669244 34.4895 0.988575 33.9885 1.45976 33.6656C1.93108 33.3428 2.51357 33.2258 3.07282 33.3416C3.906 33.5142 4.76096 33.6017 5.61396 33.6016C10.1086 33.6015 14.2948 31.1868 16.5389 27.3C19.2624 22.5829 18.6597 16.6829 15.0393 12.6186C14.6597 12.1926 14.4699 11.6305 14.5135 11.0616C14.5571 10.4928 14.8302 9.96609 15.2701 9.60279C18.8799 6.62118 22.929 4.28047 27.3045 2.64588C27.8394 2.44612 28.4326 2.47263 28.9474 2.71964C29.4622 2.96653 29.8544 3.41238 30.0334 3.95458C31.7412 9.12556 36.5502 12.6 42 12.6C47.4498 12.6 52.2588 9.12556 53.9667 3.95444C54.1457 3.41225 54.5379 2.96639 55.0527 2.71951C55.5673 2.47237 56.1606 2.44599 56.6957 2.64575C61.0713 4.28047 65.1202 6.62118 68.73 9.60279C69.1699 9.96609 69.4431 10.4928 69.4865 11.0616C69.5301 11.6305 69.3403 12.1926 68.9607 12.6186C65.3403 16.6828 64.7376 22.5829 67.4611 27.3C69.7053 31.1872 73.8914 33.6018 78.3859 33.6016C79.2393 33.6016 80.0943 33.514 80.9272 33.3416C81.4863 33.2258 82.0689 33.3428 82.5402 33.6656C83.0114 33.9885 83.3308 34.4895 83.4246 35.0531C83.8064 37.3459 84 39.6832 84 42C84 44.3168 83.8064 46.6543 83.4247 48.9471C83.3309 49.5105 83.0116 50.0115 82.5404 50.3344C82.0691 50.6573 81.487 50.7747 80.9273 50.6584C80.0941 50.486 79.2393 50.3984 78.3862 50.3984C73.8916 50.3984 69.7053 52.813 67.4612 56.7001C64.7377 61.4173 65.3404 67.3173 68.9608 71.3814C69.3404 71.8074 69.5302 72.3694 69.4866 72.9384C69.4432 73.5072 69.1701 74.0339 68.7301 74.3972C65.1205 77.3788 61.0714 79.7195 56.6958 81.3543C56.4581 81.443 56.2093 81.4871 55.9607 81.4871ZM19.5481 72.413C21.8311 74.1018 24.287 75.522 26.8851 76.6555C29.6638 70.9205 35.4891 67.2 42 67.2C48.5109 67.2 54.3361 70.9205 57.1149 76.6555C59.7131 75.5219 62.1691 74.1018 64.4519 72.413C60.8774 67.1395 60.5695 60.2365 63.8237 54.6C66.8158 49.4177 72.3958 46.1983 78.386 46.1983C78.7782 46.1983 79.1708 46.2121 79.5623 46.2398C79.7203 44.83 79.8 43.4108 79.8 42C79.8 40.5892 79.7203 39.17 79.5623 37.7601C79.1708 37.7877 78.7782 37.8016 78.386 37.8016C72.3958 37.8018 66.8158 34.5825 63.8237 29.4C60.5695 23.7636 60.8774 16.8604 64.4518 11.587C62.1688 9.89823 59.713 8.47797 57.1149 7.3445C54.3361 13.0795 48.5109 16.8 42 16.8C35.4891 16.8 29.6638 13.0795 26.8851 7.3445C24.287 8.47811 21.8311 9.89823 19.5481 11.587C23.1226 16.8605 23.4304 23.7636 20.1763 29.4C17.1843 34.5822 11.6043 37.8014 5.61409 37.8016C5.22191 37.8016 4.82934 37.7878 4.43769 37.7602C4.27967 39.1697 4.2 40.5891 4.2 42C4.2 43.4109 4.27967 44.8303 4.43769 46.2399C4.82921 46.2123 5.22178 46.1984 5.61396 46.1984C11.6042 46.1984 17.1842 49.4177 20.1761 54.6001C23.4304 60.2364 23.1224 67.1395 19.5481 72.413Z" fill="white"/>
<path d="M42 54.6C35.0523 54.6 29.4 48.9477 29.4 42C29.4 35.0523 35.0523 29.4 42 29.4C48.9477 29.4 54.6 35.0523 54.6 42C54.6 48.9477 48.9477 54.6 42 54.6ZM42 33.6C37.3682 33.6 33.6 37.3682 33.6 42C33.6 46.6318 37.3682 50.4 42 50.4C46.6318 50.4 50.4 46.6318 50.4 42C50.4 37.3682 46.6318 33.6 42 33.6Z" fill="white"/>
</svg>
