<svg width="24" height="24" viewBox="0 0 24 24" fill="none" xmlns="http://www.w3.org/2000/svg">
<path d="M22.7095 0.000171257H12.3848C12.1525 0.000171257 11.946 0.168085 11.946 0.407742V3.59655H9.98433L8.38404 2.11008C8.30662 2.03817 8.20327 1.99017 8.07436 1.99017H6.78377V2.78138H7.91935L9.51964 4.26785C9.59706 4.33976 9.70041 4.38776 9.82932 4.38776H11.9717V7.57657H10.4229L9.70017 6.90524C9.62275 6.83333 9.5194 6.78533 9.39048 6.78533H5.0801V7.57654H9.21008L9.93281 8.24787C10.0102 8.31978 10.1136 8.36778 10.2425 8.36778H11.9719V12.3718H8.28071L7.11922 11.2929C7.0418 11.221 6.93845 11.173 6.80953 11.173H3.78955V11.9881H6.62894L7.79043 13.067C7.86785 13.1389 7.9712 13.1869 8.10011 13.1869H11.9719V15.5845H10.2425C10.1393 15.5845 10.0102 15.6325 9.93281 15.7044L9.20989 16.3758H5.0801V17.167H9.39067C9.49384 17.167 9.62293 17.119 9.70035 17.0471L10.4231 16.3757H11.9719V19.5645H9.82951C9.72634 19.5645 9.59724 19.6125 9.51982 19.6845L7.91935 21.1709H6.80953V21.9621H8.10012C8.20329 21.9621 8.33239 21.9141 8.40981 21.8422L9.98433 20.3797H11.946V23.5924C11.946 23.8082 12.1268 24 12.3848 24H22.7095C23.4322 24 24.0001 23.4725 24.0001 22.8012V1.1988C24.0001 0.527472 23.4324 0 22.7095 0V0.000171257ZM21.4189 14.6255L19.1474 12.5156C18.9666 12.3477 18.7086 12.3477 18.5279 12.5156L16.6955 14.2178L14.424 12.1079C14.2433 11.94 13.9853 11.94 13.8045 12.1079L12.8238 13.019V2.39765H21.4191L21.4189 14.6255ZM23.1484 22.7774C23.1484 22.9931 22.9677 23.185 22.7096 23.185H12.8237V22.3938H15.8437V21.5786H12.8237V14.146L14.1143 12.9472L17.2634 15.8723L17.8829 15.2969L17.315 14.7694L18.8638 13.3307L21.445 15.7283L21.4448 21.5785H18.4248V22.3697H21.8578C22.0901 22.3697 22.2966 22.2018 22.2966 21.9621V1.9901C22.2966 1.77435 22.1158 1.58252 21.8578 1.58252H12.8237V0.791316H22.7096C22.9676 0.791316 23.1484 0.983145 23.1484 1.19889L23.1484 22.7774Z" fill="#878787"/>
<path d="M16.4211 21.6H17.6843V22.8H16.4211V21.6Z" fill="#878787"/>
<path d="M16.4211 10.8C17.8106 10.8 18.9474 9.72004 18.9474 8.4C18.9474 7.07996 17.8106 6 16.4211 6C15.0316 6 13.8948 7.07996 13.8948 8.4C13.8948 9.72004 15.0316 10.8 16.4211 10.8ZM16.4211 6.81596C17.3558 6.81596 18.1137 7.536 18.1137 8.42396C18.1137 9.31191 17.3558 10.032 16.4211 10.032C15.4862 10.008 14.7285 9.288 14.7285 8.40004C14.7285 7.51209 15.4862 6.816 16.4211 6.816V6.81596Z" fill="#878787"/>
<path d="M5.05271 3.59995C5.76008 3.59995 6.31587 3.07195 6.31587 2.39995C6.31587 1.72795 5.76008 1.19995 5.05271 1.19995C4.34534 1.19995 3.78955 1.72795 3.78955 2.39995C3.78955 3.07195 4.37074 3.59995 5.05271 3.59995ZM5.05271 1.99195C5.28004 1.99195 5.48216 2.16003 5.48216 2.39993C5.48216 2.64 5.30523 2.80791 5.05271 2.80791C4.82538 2.80791 4.62326 2.63983 4.62326 2.39993C4.62326 2.15986 4.82539 1.99195 5.05271 1.99195V1.99195Z" fill="#878787"/>
<path d="M2.52634 8.4C3.23371 8.4 3.7895 7.872 3.7895 7.2C3.7895 6.528 3.23371 6 2.52634 6C1.81897 6 1.26318 6.528 1.26318 7.2C1.26318 7.872 1.81897 8.4 2.52634 8.4ZM2.52634 6.792C2.75367 6.792 2.95579 6.96008 2.95579 7.19998C2.95579 7.44005 2.77886 7.60796 2.52634 7.60796C2.29901 7.60796 2.09689 7.43988 2.09689 7.19998C2.09689 6.95991 2.27364 6.792 2.52634 6.792Z" fill="#878787"/>
<path d="M2.52632 12C2.52632 11.328 1.97053 10.8 1.26316 10.8C0.555789 10.8 0 11.328 0 12C0 12.672 0.555789 13.2 1.26316 13.2C1.97053 13.2 2.52632 12.672 2.52632 12ZM1.26316 12.408C1.03583 12.408 0.833707 12.2399 0.833707 12C0.833707 11.7841 1.01063 11.5921 1.26316 11.5921C1.51586 11.5921 1.69261 11.7602 1.69261 12C1.69261 12.24 1.49048 12.408 1.26316 12.408Z" fill="#878787"/>
<path d="M5.05271 20.4C4.34534 20.4 3.78955 20.928 3.78955 21.6C3.78955 22.272 4.34534 22.8 5.05271 22.8C5.76008 22.8 6.31587 22.272 6.31587 21.6C6.31587 20.928 5.76026 20.4 5.05271 20.4ZM5.05271 22.008C4.82538 22.008 4.62326 21.8399 4.62326 21.6C4.62326 21.36 4.80019 21.1921 5.05271 21.1921C5.28004 21.1921 5.48216 21.3601 5.48216 21.6C5.48234 21.8401 5.30541 22.008 5.05271 22.008Z" fill="#878787"/>
<path d="M3.7895 16.8C3.7895 16.128 3.23371 15.6 2.52634 15.6C1.81897 15.6 1.26318 16.128 1.26318 16.8C1.26318 17.472 1.81897 18 2.52634 18C3.23371 18 3.7895 17.472 3.7895 16.8ZM2.52634 17.208C2.29901 17.208 2.09689 17.0399 2.09689 16.8C2.09689 16.5599 2.27382 16.392 2.52634 16.392C2.75367 16.392 2.95579 16.5601 2.95579 16.8C2.95579 17.04 2.75366 17.208 2.52634 17.208Z" fill="#878787"/>
</svg>
