<svg width="701" height="526" viewBox="0 0 701 526" fill="none" xmlns="http://www.w3.org/2000/svg">
<path d="M110.945 190.473C106.767 190.047 104.891 187.745 105.317 183.567L114.352 94.9262C114.778 90.7479 117.08 88.8716 121.258 89.2975L156.177 92.8568C165.28 93.7846 171.996 96.9318 176.324 102.298C180.707 107.62 182.434 114.833 181.506 123.935L181.05 128.412C180.122 137.515 176.972 144.255 171.601 148.633C166.284 152.967 159.074 154.669 149.971 153.741L121.32 150.821L117.852 184.845C117.426 189.023 115.124 190.899 110.945 190.473ZM122.597 138.286L151.249 141.206C156.92 141.784 161.07 141.001 163.701 138.857C166.332 136.713 167.937 132.805 168.515 127.135L168.971 122.658C169.544 117.037 168.759 112.911 166.614 110.28C164.475 107.599 160.57 105.97 154.9 105.392L126.248 102.471L122.597 138.286ZM261.228 206.093C259.48 206.97 257.881 207.134 256.429 206.584C254.977 206.034 253.813 204.885 252.935 203.137L233.73 162.279L212.838 160.149L209.37 194.173C208.944 198.351 206.642 200.228 202.463 199.802C198.285 199.376 196.409 197.074 196.835 192.895L205.87 104.255C206.296 100.076 208.598 98.2 212.776 98.6259L247.695 102.185C256.798 103.113 263.514 106.26 267.842 111.627C272.225 116.949 273.952 124.161 273.024 133.264L272.568 137.741C271.762 145.65 269.277 151.779 265.115 156.13C260.957 160.43 255.338 162.798 248.258 163.232L264.483 197.831C266.018 201.505 264.933 204.259 261.228 206.093ZM214.115 147.614L242.767 150.535C248.438 151.113 252.588 150.33 255.219 148.185C257.85 146.041 259.455 142.134 260.033 136.463L260.489 131.986C261.062 126.365 260.277 122.239 258.132 119.608C255.993 116.928 252.088 115.298 246.418 114.72L217.766 111.8L214.115 147.614ZM295.73 209.308C291.552 208.882 289.676 206.58 290.101 202.402L299.137 113.761C299.562 109.583 301.865 107.707 306.043 108.132L359.615 113.593C363.794 114.019 365.67 116.321 365.244 120.499C364.818 124.678 362.516 126.554 358.338 126.128L311.033 121.306L307.839 152.644L337.535 155.671C341.713 156.097 343.589 158.399 343.163 162.577C342.737 166.756 340.435 168.632 336.257 168.206L306.561 165.179L303.275 197.412L350.58 202.234C354.759 202.66 356.635 204.962 356.209 209.14C355.783 213.318 353.481 215.195 349.303 214.769L295.73 209.308Z" fill="black"/>
<path d="M303.5 278L8.64035 248.272L33.0923 8.51611L648.832 72.6743" stroke="black" stroke-width="15" stroke-linecap="round" stroke-linejoin="round"/>
<path d="M389.8 377.823C387.572 375.594 384.926 373.826 382.014 372.619C379.101 371.413 375.98 370.792 372.828 370.792C369.676 370.792 366.555 371.413 363.643 372.619C360.731 373.826 358.085 375.594 355.856 377.823L344.544 389.135C343.801 389.879 342.919 390.469 341.948 390.871C340.977 391.274 339.936 391.481 338.884 391.481C337.833 391.481 336.792 391.274 335.821 390.871C334.85 390.469 333.967 389.879 333.224 389.135L321.912 377.823C321.168 377.08 320.578 376.198 320.176 375.226C319.773 374.255 319.566 373.214 319.566 372.163C319.566 371.112 319.773 370.071 320.176 369.099C320.578 368.128 321.168 367.246 321.912 366.503L344.536 343.879C345.993 342.37 346.8 340.349 346.782 338.252C346.763 336.154 345.922 334.148 344.439 332.664C342.956 331.181 340.949 330.34 338.851 330.322C336.754 330.303 334.733 331.11 333.224 332.567L310.6 355.199C308.371 357.428 306.603 360.074 305.397 362.986C304.19 365.898 303.569 369.019 303.569 372.171C303.569 375.323 304.19 378.444 305.397 381.356C306.603 384.268 308.371 386.914 310.6 389.143L321.912 400.455C324.141 402.684 326.787 404.452 329.699 405.659C332.611 406.865 335.732 407.486 338.884 407.486C342.036 407.486 345.157 406.865 348.07 405.659C350.982 404.452 353.628 402.684 355.856 400.455L367.168 389.143C367.911 388.399 368.794 387.809 369.765 387.407C370.736 387.004 371.777 386.797 372.828 386.797C373.88 386.797 374.921 387.004 375.892 387.407C376.863 387.809 377.745 388.399 378.488 389.143L389.8 400.447C390.544 401.19 391.134 402.072 391.537 403.043C391.939 404.015 392.146 405.056 392.146 406.107C392.146 407.158 391.939 408.199 391.537 409.171C391.134 410.142 390.544 411.024 389.8 411.767L367.176 434.399C366.412 435.137 365.803 436.02 365.383 436.996C364.964 437.972 364.743 439.022 364.734 440.084C364.725 441.146 364.927 442.199 365.33 443.183C365.732 444.166 366.326 445.059 367.077 445.81C367.828 446.561 368.721 447.155 369.705 447.558C370.688 447.96 371.741 448.162 372.803 448.153C373.866 448.144 374.915 447.923 375.891 447.504C376.867 447.085 377.75 446.475 378.488 445.711L401.12 423.087C403.349 420.858 405.117 418.212 406.324 415.3C407.53 412.388 408.151 409.267 408.151 406.115C408.151 402.963 407.53 399.842 406.324 396.93C405.117 394.018 403.349 391.372 401.12 389.143L389.8 377.823Z" fill="black"/>
<path d="M481.12 329.023L396.264 278.111C394.735 277.194 392.944 276.814 391.174 277.031C389.404 277.249 387.758 278.051 386.496 279.311L375.176 290.631C373.916 291.893 373.114 293.539 372.897 295.309C372.679 297.078 373.059 298.87 373.976 300.399L424.888 385.255C425.429 386.156 426.143 386.941 426.987 387.567C427.832 388.192 428.791 388.645 429.811 388.899C430.83 389.154 431.89 389.205 432.93 389.05C433.969 388.894 434.967 388.536 435.868 387.995C436.769 387.454 437.555 386.741 438.18 385.896C438.805 385.052 439.258 384.092 439.512 383.073C439.767 382.053 439.818 380.993 439.663 379.954C439.508 378.915 439.149 377.916 438.608 377.015L424.848 354.087L449.952 328.983L472.88 342.743C473.781 343.284 474.78 343.642 475.819 343.798C476.858 343.953 477.918 343.902 478.938 343.647C479.957 343.393 480.917 342.94 481.762 342.315C482.606 341.689 483.319 340.904 483.86 340.003C484.401 339.102 484.76 338.104 484.915 337.064C485.07 336.025 485.019 334.965 484.764 333.946C484.51 332.926 484.057 331.967 483.432 331.122C482.807 330.277 482.021 329.564 481.12 329.023V329.023ZM416.36 339.951L390.904 297.551L393.384 295.071L435.784 320.527L416.36 339.951Z" fill="black"/>
<path d="M530.257 271.311L501.969 299.599L439.745 237.375C439.007 236.611 438.124 236.001 437.148 235.582C436.172 235.163 435.122 234.942 434.06 234.933C432.998 234.924 431.944 235.126 430.961 235.528C429.978 235.931 429.085 236.525 428.333 237.276C427.582 238.027 426.988 238.92 426.586 239.903C426.184 240.886 425.981 241.94 425.991 243.002C426 244.064 426.22 245.114 426.64 246.09C427.059 247.066 427.668 247.949 428.433 248.687L496.313 316.567C497.813 318.067 499.847 318.909 501.969 318.909C504.09 318.909 506.124 318.067 507.625 316.567L541.569 282.623C543.026 281.114 543.832 279.093 543.814 276.996C543.796 274.898 542.954 272.892 541.471 271.408C539.988 269.925 537.981 269.084 535.884 269.066C533.786 269.047 531.765 269.854 530.257 271.311V271.311Z" fill="black"/>
<path d="M583.512 218.055L560.88 240.687L538.256 218.055L549.568 206.743C551.026 205.234 551.832 203.214 551.814 201.116C551.795 199.018 550.954 197.012 549.471 195.529C547.988 194.045 545.981 193.204 543.883 193.186C541.786 193.168 539.765 193.974 538.256 195.431L526.944 206.743L504.312 184.119L526.944 161.487C527.708 160.749 528.318 159.866 528.737 158.89C529.156 157.914 529.377 156.865 529.386 155.802C529.395 154.74 529.193 153.687 528.791 152.704C528.389 151.72 527.795 150.827 527.043 150.076C526.292 149.325 525.399 148.731 524.416 148.329C523.433 147.926 522.379 147.724 521.317 147.733C520.255 147.742 519.205 147.963 518.229 148.382C517.253 148.802 516.37 149.411 515.632 150.175L487.344 178.463C485.844 179.963 485.002 181.998 485.002 184.119C485.002 186.241 485.844 188.275 487.344 189.775L555.224 257.655C556.724 259.155 558.759 259.998 560.88 259.998C563.002 259.998 565.036 259.155 566.536 257.655L594.824 229.367C595.588 228.629 596.198 227.746 596.617 226.77C597.036 225.794 597.257 224.745 597.266 223.682C597.275 222.62 597.073 221.567 596.671 220.584C596.269 219.6 595.675 218.707 594.923 217.956C594.172 217.205 593.279 216.611 592.296 216.209C591.313 215.806 590.259 215.604 589.197 215.613C588.135 215.622 587.085 215.843 586.109 216.262C585.133 216.682 584.25 217.291 583.512 218.055V218.055Z" fill="black"/>
<path d="M671.089 169.039L679.985 111.199C680.929 105.009 680.408 98.683 678.462 92.731C676.515 86.7791 673.199 81.3672 668.779 76.9311C664.359 72.4949 658.96 69.1585 653.015 67.1903C647.07 65.222 640.746 64.677 634.553 65.5991L511.353 83.9991C496.104 86.3056 481.99 93.4188 471.065 104.303L231.401 343.879C223.899 351.381 219.685 361.555 219.685 372.163C219.685 382.772 223.899 392.946 231.401 400.447L344.553 513.599C352.054 521.1 362.228 525.315 372.837 525.315C383.445 525.315 393.619 521.1 401.121 513.599L532.321 382.399C546.041 449.463 576.905 491.999 613.001 491.999C662.345 491.999 701.001 411.199 701.001 307.999C701.001 254.015 690.081 203.671 671.089 169.039ZM389.801 502.271C385.229 506.639 379.151 509.076 372.829 509.076C366.506 509.076 360.428 506.639 355.857 502.271L242.729 389.135C240.499 386.906 238.731 384.261 237.525 381.348C236.319 378.436 235.698 375.315 235.698 372.163C235.698 369.011 236.319 365.89 237.525 362.978C238.731 360.066 240.499 357.42 242.729 355.191L482.353 115.567C490.853 107.107 501.83 101.578 513.689 99.7831L636.889 81.3831C638.088 81.2017 639.299 81.1108 640.513 81.1111C643.974 81.115 647.393 81.8675 650.536 83.3171C653.68 84.7667 656.472 86.8789 658.722 89.509C660.972 92.1392 662.627 95.2249 663.573 98.5545C664.518 101.884 664.732 105.379 664.201 108.799L658.001 149.135C653.481 143.518 648.245 138.518 642.425 134.263C642.37 125.89 639.012 117.877 633.081 111.967C626.981 106.154 618.878 102.912 610.453 102.912C602.027 102.912 593.924 106.154 587.825 111.967C584.56 115.155 582.015 119.005 580.36 123.257C578.705 127.51 577.979 132.067 578.23 136.623C578.481 141.18 579.704 145.63 581.816 149.675C583.929 153.719 586.882 157.266 590.477 160.076C594.073 162.885 598.227 164.894 602.663 165.966C607.098 167.038 611.712 167.149 616.194 166.292C620.676 165.435 624.922 163.629 628.649 160.995C632.376 158.362 635.496 154.962 637.801 151.023C644.388 157.154 650.012 164.244 654.481 172.055L645.345 231.447C643.555 243.227 638.03 254.122 629.585 262.527L389.801 502.271ZM613.001 139.999C616.902 140.025 620.761 140.802 624.369 142.287C623.662 143.605 622.776 144.82 621.737 145.895C619.404 148.287 616.388 149.9 613.104 150.512C609.819 151.125 606.425 150.707 603.387 149.316C600.349 147.925 597.815 145.63 596.132 142.743C594.448 139.857 593.699 136.521 593.985 133.192C594.271 129.862 595.578 126.703 597.729 124.146C599.88 121.589 602.768 119.759 605.999 118.907C609.23 118.055 612.645 118.222 615.778 119.385C618.91 120.549 621.606 122.652 623.497 125.407C620.066 124.526 616.542 124.053 613.001 123.999C610.879 123.999 608.844 124.842 607.344 126.342C605.843 127.843 605.001 129.877 605.001 131.999C605.001 134.121 605.843 136.156 607.344 137.656C608.844 139.156 610.879 139.999 613.001 139.999ZM613.001 475.999C584.089 475.999 556.865 431.999 546.081 368.623L640.857 273.839C651.724 263.024 658.826 249 661.113 233.839L666.713 197.655C679.361 233.046 685.555 270.42 685.001 307.999C685.001 399.063 652.025 475.999 613.001 475.999Z" fill="black"/>
</svg>
