<svg width="50" height="50" viewBox="0 0 50 50" fill="none" xmlns="http://www.w3.org/2000/svg">
<path d="M15.625 3.125H3.125V15.625H15.625V3.125ZM18.75 0V18.75H0V0H18.75ZM6.25 6.25H12.5V12.5H6.25V6.25ZM46.875 3.125H34.375V15.625H46.875V3.125ZM50 0V18.75H31.25V0H50ZM37.5 6.25H43.75V12.5H37.5V6.25ZM15.625 34.375H3.125V46.875H15.625V34.375ZM18.75 31.25V50H0V31.25H18.75ZM6.25 37.5H12.5V43.75H6.25V37.5ZM21.875 0H25V3.125H21.875V0ZM25 3.125H28.125V6.25H25V3.125ZM21.875 6.25H25V9.375H21.875V6.25ZM25 9.375H28.125V12.5H25V9.375ZM21.875 12.5H25V15.625H21.875V12.5ZM25 15.625H28.125V18.75H25V15.625ZM21.875 18.75H25V21.875H21.875V18.75ZM21.875 25H25V28.125H21.875V25ZM25 28.125H28.125V31.25H25V28.125ZM21.875 31.25H25V34.375H21.875V31.25ZM25 34.375H28.125V37.5H25V34.375ZM21.875 37.5H25V40.625H21.875V37.5ZM25 40.625H28.125V43.75H25V40.625ZM21.875 43.75H25V46.875H21.875V43.75ZM25 46.875H28.125V50H25V46.875ZM46.875 25H50V28.125H46.875V25ZM3.125 25H6.25V28.125H3.125V25ZM6.25 21.875H9.375V25H6.25V21.875ZM0 21.875H3.125V25H0V21.875ZM12.5 21.875H15.625V25H12.5V21.875ZM15.625 25H18.75V28.125H15.625V25ZM18.75 21.875H21.875V25H18.75V21.875ZM28.125 25H31.25V28.125H28.125V25ZM31.25 21.875H34.375V25H31.25V21.875ZM34.375 25H37.5V28.125H34.375V25ZM37.5 21.875H40.625V25H37.5V21.875ZM40.625 25H43.75V28.125H40.625V25ZM43.75 21.875H46.875V25H43.75V21.875ZM46.875 31.25H50V34.375H46.875V31.25ZM28.125 31.25H31.25V34.375H28.125V31.25ZM31.25 28.125H34.375V31.25H31.25V28.125ZM34.375 31.25H37.5V34.375H34.375V31.25ZM40.625 31.25H43.75V34.375H40.625V31.25ZM43.75 28.125H46.875V31.25H43.75V28.125ZM46.875 37.5H50V40.625H46.875V37.5ZM28.125 37.5H31.25V40.625H28.125V37.5ZM31.25 34.375H34.375V37.5H31.25V34.375ZM37.5 34.375H40.625V37.5H37.5V34.375ZM40.625 37.5H43.75V40.625H40.625V37.5ZM43.75 34.375H46.875V37.5H43.75V34.375ZM46.875 43.75H50V46.875H46.875V43.75ZM31.25 40.625H34.375V43.75H31.25V40.625ZM34.375 43.75H37.5V46.875H34.375V43.75ZM37.5 40.625H40.625V43.75H37.5V40.625ZM40.625 43.75H43.75V46.875H40.625V43.75ZM31.25 46.875H34.375V50H31.25V46.875ZM37.5 46.875H40.625V50H37.5V46.875ZM43.75 46.875H46.875V50H43.75V46.875Z" fill="#00A9FF"/>
</svg>
