<svg width="76" height="68" viewBox="0 0 76 68" fill="none" xmlns="http://www.w3.org/2000/svg">
<path d="M59.414 30.586C58.6331 29.805 57.3666 29.805 56.5856 30.586L40 47.1715V2C40 0.8955 39.1045 0 38 0C36.8955 0 36 0.8955 36 2V47.1715L19.4142 30.586C18.6331 29.805 17.3669 29.805 16.5857 30.586C15.8047 31.3669 15.8047 32.6334 16.5857 33.4144L36.5858 53.4144C36.9764 53.8047 37.4881 54 38 54C38.5119 54 39.0236 53.8048 39.4142 53.414L59.4142 33.414C60.1952 32.6331 60.1953 31.3669 59.414 30.586Z" fill="white"/>
<path d="M70 68H6C2.69163 68 0 65.3085 0 62V54C0 52.8954 0.8955 52 2 52C3.1045 52 4 52.8954 4 54V62C4 63.1027 4.89725 64 6 64H70C71.1028 64 72 63.1027 72 62V54C72 52.8954 72.8954 52 74 52C75.1046 52 76 52.8954 76 54V62C76 65.3085 73.3085 68 70 68Z" fill="white"/>
</svg>
