<svg xmlns="http://www.w3.org/2000/svg"  viewBox="0 0 464 464" width="58px" height="58px"><path fill="#caf1fc" d="M54.47,200.969c-3.378-2.848-3.808-7.895-0.959-11.273L198.324,17.934	c2.849-3.377,7.897-3.806,11.273-0.959c3.378,2.848,3.808,7.895,0.959,11.273L65.743,200.009	C62.896,203.386,57.848,203.817,54.47,200.969z"/><path fill="#caf1fc" d="M401.717,204.112L250.15,24.345c-2.853-3.374-2.43-8.422,0.944-11.274	c3.376-2.853,8.423-2.429,11.274,0.945c5.981,7.093,145.295,172.328,151.58,179.782c2.848,3.378,2.418,8.425-0.959,11.273	C409.617,207.915,404.569,207.494,401.717,204.112z"/><path fill="#ff6d7a" d="M464,210.991v220c0,17.67-14.33,32-32,32H32c-17.67,0-32-14.33-32-32v-220c0-17.67,14.33-32,32-32	c15.651,0,384.408,0,400,0C449.67,178.991,464,193.321,464,210.991z"/><path fill="#42434d" d="M262.856,14.603c-18.12-19.693-49.314-17.619-64.832,3.816C177.963,45.956,197.723,84.991,232,84.991	C268.347,84.991,287.653,41.607,262.856,14.603z"/><path fill="#ff8c95" d="M464,210.991c0,15.464-12.536,28-28,28H256c-108.248,0-196,87.752-196,196c0,15.464-12.536,28-28,28	c-17.673,0-32-14.327-32-32v-220c0-17.673,14.327-32,32-32h400C449.673,178.991,464,193.317,464,210.991z"/><path fill="#fff" d="M85.92,283.16h34.37c4.418,0,8-3.582,8-8s-3.582-8-8-8H85.92c-8.249,0-16.012,3.212-21.867,9.053	c-19.292,19.292-5.732,52.777,21.867,52.777h11.45c8.3,0,14.92,6.715,14.92,14.92c0,8.222-6.693,14.91-14.92,14.91H63	c-4.418,0-8,3.582-8,8s3.582,8,8,8h34.37c17.049,0,30.92-13.866,30.92-30.91c0-17.017-13.75-30.92-30.92-30.92H85.92	c-13.291,0-19.877-16.14-10.56-25.456C78.188,284.714,81.938,283.16,85.92,283.16z"/><path fill="#fff" d="M196.666,272.774c-2.333-7.463-12.941-7.459-15.271,0c-2.872,9.193-25.037,80.129-28.64,91.661	c-1.317,4.217,1.034,8.704,5.251,10.021c4.214,1.317,8.704-1.033,10.021-5.251l3.617-11.575h34.783l3.619,11.577	c1.07,3.423,4.227,5.616,7.633,5.615c5.395,0,9.247-5.241,7.638-10.389L196.666,272.774z M176.642,341.631l12.389-39.651	l12.394,39.651H176.642z"/><path fill="#fff" d="M303.61,358.821h-37.83v-83.66c0-4.418-3.582-8-8-8s-8,3.582-8,8v91.66c0,4.418,3.582,8,8,8h45.83	c4.418,0,8-3.582,8-8S308.028,358.821,303.61,358.821z"/><path fill="#fff" d="M401,358.821h-49.29v-29.83h26.37c4.418,0,8-3.582,8-8s-3.582-8-8-8h-26.37v-29.83H401	c4.418,0,8-3.582,8-8s-3.582-8-8-8h-57.29c-4.418,0-8,3.582-8,8v91.66c0,4.418,3.582,8,8,8H401c4.418,0,8-3.582,8-8	S405.418,358.821,401,358.821z"/><path fill="#585966" d="M257.345,27.976c-21.579,0.807-39.537,18.762-40.37,40.349c-0.263,6.805-8.364,10.24-13.377,5.631	c-15.019-13.809-18.637-37.625-5.578-55.535c16.481-22.761,48.035-22.237,64.937-3.853	C267.582,19.598,264.174,27.721,257.345,27.976z"/></svg>