<svg width="76" height="62" viewBox="0 0 76 62" fill="none" xmlns="http://www.w3.org/2000/svg">
<path d="M70 62H6C2.69163 62 0 59.3085 0 56V48C0 46.8954 0.8955 46 2 46C3.1045 46 4 46.8954 4 48V56C4 57.1027 4.89725 58 6 58H70C71.1028 58 72 57.1027 72 56V48C72 46.8954 72.8954 46 74 46C75.1046 46 76 46.8954 76 48V56C76 59.3085 73.3085 62 70 62Z" fill="white"/>
<path d="M59.4141 20.5858L39.4141 0.585689C38.633 -0.195311 37.3668 -0.195311 36.5856 0.585689L16.5856 20.5858C15.8046 21.3669 15.8046 22.6331 16.5856 23.4141C17.3666 24.1951 18.633 24.1951 19.4141 23.4141L36 6.82839V48C36 49.1046 36.8955 50 38 50C39.1045 50 40 49.1046 40 48V6.82839L56.5859 23.4141C56.9764 23.8047 57.4881 24 58 24C58.5119 24 59.0236 23.8047 59.4141 23.4141C60.1953 22.6331 60.1953 21.3669 59.4141 20.5858Z" fill="white"/>
</svg>
