<svg width="76" height="80" viewBox="0 0 76 80" fill="none" xmlns="http://www.w3.org/2000/svg">
<path d="M70 36H68V26C68 22.6916 65.3084 20 62 20H52V2C52 0.8955 51.1046 0 50 0H10C8.8955 0 8 0.8955 8 2V20.2013C3.441 21.1304 0 25.1707 0 30V74C0 77.3085 2.69163 80 6 80H70C73.3085 80 76 77.3085 76 74V42C76 38.6916 73.3085 36 70 36ZM12 4H48V28H12V4ZM8 24.344V30C8 31.1045 8.8955 32 10 32H58C59.1046 32 60 31.1045 60 30C60 28.8955 59.1046 28 58 28H52V24H62C63.1027 24 64 24.8972 64 26V36H10C6.69163 36 4 33.3084 4 30C4 27.3927 5.67212 25.1696 8 24.344ZM72 74C72 75.1028 71.1028 76 70 76H6C4.89725 76 4 75.1028 4 74V37.9953C5.67237 39.2534 7.75087 40 10 40H70C71.1028 40 72 40.8973 72 42V74Z" fill="white"/>
</svg>
